<?xml version="1.0" encoding="UTF-8"?>
<!-- MOVE side elevation from stl/MOVE.stl, azimuth 0 deg, generated by pieces/side_svg.py; 1 unit = 1 mm (true scale) -->
<svg xmlns="http://www.w3.org/2000/svg" width="35.395mm" height="55.015mm" viewBox="-0.000 -0.000 35.395 55.015"><title>MOVE — side view</title><path fill="currentColor" d="M23.477,55.001C23.381,54.459 23.259,53.976 23.041,53.478C22.973,53.321 22.936,53.023 22.877,52.833C22.700,52.262 22.499,51.696 22.300,51.132C21.854,49.869 21.229,48.620 20.562,47.463C21.735,46.136 22.744,44.703 23.410,43.055C23.970,43.511 24.467,44.085 24.986,44.593C26.549,46.123 28.038,47.726 29.441,49.404C29.126,50.808 28.777,52.208 28.517,53.623C28.442,54.029 28.272,54.555 28.324,54.968C28.344,55.131 28.329,54.858 28.395,55.015C28.732,54.993 28.744,54.896 28.792,54.574C28.779,54.673 28.703,54.923 28.814,54.987C28.978,55.083 34.463,55.015 35.142,55.015C35.520,54.093 35.367,53.094 35.313,52.125C35.248,50.946 35.147,49.772 35.048,48.596C34.867,46.452 34.697,44.306 34.449,42.168C34.298,40.864 34.163,39.509 33.792,38.245C33.192,36.200 32.434,34.200 31.671,32.211C30.983,30.417 30.359,28.622 29.525,26.886C29.036,25.868 28.456,24.872 27.871,23.912C27.424,23.177 27.151,22.320 26.773,21.548C26.125,20.224 25.423,18.909 24.868,17.542C24.491,16.613 24.239,15.651 23.910,14.706C23.581,13.761 23.212,12.839 22.954,11.871C22.678,10.833 22.563,9.748 22.408,8.687C22.229,7.463 21.949,6.210 21.870,4.975C21.798,3.844 21.865,2.689 21.865,1.556C20.828,1.532 19.790,1.562 18.753,1.546C18.513,0.933 18.200,-0.105 17.386,0.072C16.516,0.762 16.245,2.162 15.980,3.189C15.881,3.573 15.838,3.979 15.605,4.300C15.407,4.300 15.210,4.297 15.015,4.284C14.591,3.415 14.336,2.418 13.743,1.649C13.187,1.455 12.322,1.474 11.753,1.610C11.329,2.545 11.215,3.764 11.215,4.782C11.119,4.834 11.076,4.808 11.018,4.917C10.736,5.448 10.583,6.124 10.393,6.695C10.041,7.749 9.654,8.815 9.229,9.841C8.497,11.604 7.731,13.355 7.026,15.130C6.656,16.062 6.345,17.015 5.980,17.948C5.583,18.961 5.088,19.914 4.736,20.947C4.307,22.211 3.980,23.521 3.656,24.815C3.398,25.848 3.084,26.883 2.874,27.927C2.565,29.465 2.421,31.067 2.298,32.629C2.166,34.308 2.252,35.984 2.159,37.663C2.113,38.495 1.950,39.315 1.870,40.144C1.772,41.170 1.768,42.220 1.758,43.250C1.752,43.845 1.783,44.455 1.877,45.043C1.940,45.440 2.160,45.992 2.091,46.388C2.007,46.868 1.577,47.723 1.403,48.239C0.798,50.026 -0.138,53.170 0.030,55.015C5.214,55.015 10.398,55.015 15.582,55.015C17.299,55.015 19.017,55.015 20.734,55.015C21.645,55.015 22.570,55.056 23.477,55.001Z"/></svg>
