# Blender 5.1.1
# www.blender.org
o FOOD
v 16.750000 2.250000 0.000000
v 16.669344 2.250000 -1.641787
v 16.428154 2.250000 -3.267763
v 16.028751 2.250000 -4.862268
v 15.474982 2.250000 -6.409947
v 14.772182 2.250000 -7.895895
v 13.927116 2.250000 -9.305801
v 12.947926 2.250000 -10.626087
v 11.844039 2.250000 -11.844039
v 10.626087 2.250000 -12.947926
v 9.305801 2.250000 -13.927116
v 7.895895 2.250000 -14.772182
v 6.409947 2.250000 -15.474982
v 4.862268 2.250000 -16.028751
v 3.267763 2.250000 -16.428154
v 1.641787 2.250000 -16.669344
v 0.000000 2.250000 -16.750000
v -1.641787 2.250000 -16.669344
v -3.267763 2.250000 -16.428154
v -4.862268 2.250000 -16.028751
v -6.409947 2.250000 -15.474982
v -7.895895 2.250000 -14.772182
v -9.305801 2.250000 -13.927116
v -10.626087 2.250000 -12.947926
v -11.844039 2.250000 -11.844039
v -12.947926 2.250000 -10.626087
v -13.927116 2.250000 -9.305801
v -14.772182 2.250000 -7.895895
v -15.474982 2.250000 -6.409947
v -16.028751 2.250000 -4.862268
v -16.428154 2.250000 -3.267763
v -16.669344 2.250000 -1.641787
v -16.750000 2.250000 -0.000000
v -16.669344 2.250000 1.641787
v -16.428154 2.250000 3.267763
v -16.028751 2.250000 4.862268
v -15.474982 2.250000 6.409947
v -14.772182 2.250000 7.895895
v -13.927116 2.250000 9.305801
v -12.947926 2.250000 10.626087
v -11.844039 2.250000 11.844039
v -10.626087 2.250000 12.947926
v -9.305801 2.250000 13.927116
v -7.895895 2.250000 14.772182
v -6.409947 2.250000 15.474982
v -4.862268 2.250000 16.028751
v -3.267763 2.250000 16.428154
v -1.641787 2.250000 16.669344
v -0.000000 2.250000 16.750000
v 1.641787 2.250000 16.669344
v 3.267763 2.250000 16.428154
v 4.862268 2.250000 16.028751
v 6.409947 2.250000 15.474982
v 7.895895 2.250000 14.772182
v 9.305801 2.250000 13.927116
v 10.626087 2.250000 12.947926
v 11.844039 2.250000 11.844039
v 12.947926 2.250000 10.626087
v 13.927116 2.250000 9.305801
v 14.772182 2.250000 7.895895
v 15.474982 2.250000 6.409947
v 16.028751 2.250000 4.862268
v 16.428154 2.250000 3.267763
v 16.669344 2.250000 1.641787
v 16.750000 4.500000 0.000000
v 16.669344 4.500000 -1.641787
v 16.428154 4.500000 -3.267763
v 16.028751 4.500000 -4.862268
v 15.474982 4.500000 -6.409947
v 14.772182 4.500000 -7.895895
v 13.927116 4.500000 -9.305801
v 12.947926 4.500000 -10.626087
v 11.844039 4.500000 -11.844039
v 10.626087 4.500000 -12.947926
v 9.305801 4.500000 -13.927116
v 7.895895 4.500000 -14.772182
v 6.409947 4.500000 -15.474982
v 4.862268 4.500000 -16.028751
v 3.267763 4.500000 -16.428154
v 1.641787 4.500000 -16.669344
v 0.000000 4.500000 -16.750000
v -1.641787 4.500000 -16.669344
v -3.267763 4.500000 -16.428154
v -4.862268 4.500000 -16.028751
v -6.409947 4.500000 -15.474982
v -7.895895 4.500000 -14.772182
v -9.305801 4.500000 -13.927116
v -10.626087 4.500000 -12.947926
v -11.844039 4.500000 -11.844039
v -12.947926 4.500000 -10.626087
v -13.927116 4.500000 -9.305801
v -14.772182 4.500000 -7.895895
v -15.474982 4.500000 -6.409947
v -16.028751 4.500000 -4.862268
v -16.428154 4.500000 -3.267763
v -16.669344 4.500000 -1.641787
v -16.750000 4.500000 -0.000000
v -16.669344 4.500000 1.641787
v -16.428154 4.500000 3.267763
v -16.028751 4.500000 4.862268
v -15.474982 4.500000 6.409947
v -14.772182 4.500000 7.895895
v -13.927116 4.500000 9.305801
v -12.947926 4.500000 10.626087
v -11.844039 4.500000 11.844039
v -10.626087 4.500000 12.947926
v -9.305801 4.500000 13.927116
v -7.895895 4.500000 14.772182
v -6.409947 4.500000 15.474982
v -4.862268 4.500000 16.028751
v -3.267763 4.500000 16.428154
v -1.641787 4.500000 16.669344
v -0.000000 4.500000 16.750000
v 1.641787 4.500000 16.669344
v 3.267763 4.500000 16.428154
v 4.862268 4.500000 16.028751
v 6.409947 4.500000 15.474982
v 7.895895 4.500000 14.772182
v 9.305801 4.500000 13.927116
v 10.626087 4.500000 12.947926
v 11.844039 4.500000 11.844039
v 12.947926 4.500000 10.626087
v 13.927116 4.500000 9.305801
v 14.772182 4.500000 7.895895
v 15.474982 4.500000 6.409947
v 16.028751 4.500000 4.862268
v 16.428154 4.500000 3.267763
v 16.669344 4.500000 1.641787
v 16.750000 6.750000 0.000000
v 16.669344 6.750000 -1.641787
v 16.428154 6.750000 -3.267763
v 16.028751 6.750000 -4.862268
v 15.474982 6.750000 -6.409947
v 14.772182 6.750000 -7.895895
v 13.927116 6.750000 -9.305801
v 12.947926 6.750000 -10.626087
v 11.844039 6.750000 -11.844039
v 10.626087 6.750000 -12.947926
v 9.305801 6.750000 -13.927116
v 7.895895 6.750000 -14.772182
v 6.409947 6.750000 -15.474982
v 4.862268 6.750000 -16.028751
v 3.267763 6.750000 -16.428154
v 1.641787 6.750000 -16.669344
v 0.000000 6.750000 -16.750000
v -1.641787 6.750000 -16.669344
v -3.267763 6.750000 -16.428154
v -4.862268 6.750000 -16.028751
v -6.409947 6.750000 -15.474982
v -7.895895 6.750000 -14.772182
v -9.305801 6.750000 -13.927116
v -10.626087 6.750000 -12.947926
v -11.844039 6.750000 -11.844039
v -12.947926 6.750000 -10.626087
v -13.927116 6.750000 -9.305801
v -14.772182 6.750000 -7.895895
v -15.474982 6.750000 -6.409947
v -16.028751 6.750000 -4.862268
v -16.428154 6.750000 -3.267763
v -16.669344 6.750000 -1.641787
v -16.750000 6.750000 -0.000000
v -16.669344 6.750000 1.641787
v -16.428154 6.750000 3.267763
v -16.028751 6.750000 4.862268
v -15.474982 6.750000 6.409947
v -14.772182 6.750000 7.895895
v -13.927116 6.750000 9.305801
v -12.947926 6.750000 10.626087
v -11.844039 6.750000 11.844039
v -10.626087 6.750000 12.947926
v -9.305801 6.750000 13.927116
v -7.895895 6.750000 14.772182
v -6.409947 6.750000 15.474982
v -4.862268 6.750000 16.028751
v -3.267763 6.750000 16.428154
v -1.641787 6.750000 16.669344
v -0.000000 6.750000 16.750000
v 1.641787 6.750000 16.669344
v 3.267763 6.750000 16.428154
v 4.862268 6.750000 16.028751
v 6.409947 6.750000 15.474982
v 7.895895 6.750000 14.772182
v 9.305801 6.750000 13.927116
v 10.626087 6.750000 12.947926
v 11.844039 6.750000 11.844039
v 12.947926 6.750000 10.626087
v 13.927116 6.750000 9.305801
v 14.772182 6.750000 7.895895
v 15.474982 6.750000 6.409947
v 16.028751 6.750000 4.862268
v 16.428154 6.750000 3.267763
v 16.669344 6.750000 1.641787
v 15.248192 0.000000 0.000000
v 16.750000 1.500000 0.000000
v 15.822908 0.114181 0.000000
v 16.310131 0.439340 0.000000
v 16.635683 0.925975 0.000000
v 15.174767 0.000000 -1.494583
v 16.669344 1.500000 -1.641787
v 15.746718 0.114181 -1.550915
v 16.231594 0.439340 -1.598672
v 16.555576 0.925975 -1.630582
v 14.955202 0.000000 -2.974776
v 16.428154 1.500000 -3.267763
v 15.518876 0.114181 -3.086897
v 15.996737 0.439340 -3.181949
v 16.316032 0.925975 -3.245461
v 14.591610 0.000000 -4.426318
v 16.028751 1.500000 -4.862268
v 15.141581 0.114181 -4.593149
v 15.607823 0.439340 -4.734582
v 15.919355 0.925975 -4.829084
v 14.087489 0.000000 -5.835235
v 15.474982 1.500000 -6.409947
v 14.618460 0.114181 -6.055168
v 15.068595 0.439340 -6.241618
v 15.369366 0.925975 -6.366200
v 13.447708 0.000000 -7.187941
v 14.772182 1.500000 -7.895895
v 13.954563 0.114181 -7.458864
v 14.384253 0.439340 -7.688540
v 14.671362 0.925975 -7.842006
v 12.678409 0.000000 -8.471440
v 13.927116 1.500000 -9.305801
v 13.156268 0.114181 -8.790736
v 13.561378 0.439340 -9.061422
v 13.832064 0.925975 -9.242290
v 11.787016 0.000000 -9.673345
v 12.947926 1.500000 -10.626087
v 12.231276 0.114181 -10.037943
v 12.607903 0.439340 -10.347034
v 12.859556 0.925975 -10.553563
v 10.782099 0.000000 -10.782100
v 11.844039 1.500000 -11.844039
v 11.188485 0.114181 -11.188486
v 11.533003 0.439340 -11.533003
v 11.763203 0.925975 -11.763203
v 9.673345 0.000000 -11.787016
v 10.626087 1.500000 -12.947926
v 10.037943 0.114181 -12.231276
v 10.347034 0.439340 -12.607903
v 10.553563 0.925975 -12.859556
v 8.471440 0.000000 -12.678409
v 9.305801 1.500000 -13.927116
v 8.790737 0.114181 -13.156269
v 9.061422 0.439340 -13.561378
v 9.242290 0.925975 -13.832064
v 7.187941 0.000000 -13.447708
v 7.895895 1.500000 -14.772182
v 7.458864 0.114181 -13.954563
v 7.688540 0.439340 -14.384253
v 7.842006 0.925975 -14.671362
v 5.835236 0.000000 -14.087489
v 6.409947 1.500000 -15.474982
v 6.055168 0.114181 -14.618460
v 6.241618 0.439340 -15.068595
v 6.366200 0.925975 -15.369366
v 4.426318 0.000000 -14.591610
v 4.862268 1.500000 -16.028751
v 4.593149 0.114181 -15.141581
v 4.734582 0.439340 -15.607823
v 4.829084 0.925975 -15.919355
v 2.974776 0.000000 -14.955202
v 3.267763 1.500000 -16.428154
v 3.086897 0.114181 -15.518876
v 3.181949 0.439340 -15.996737
v 3.245461 0.925975 -16.316032
v 1.494583 0.000000 -15.174767
v 1.641787 1.500000 -16.669344
v 1.550915 0.114181 -15.746718
v 1.598672 0.439340 -16.231594
v 1.630582 0.925975 -16.555576
v 0.000000 0.000000 -15.248192
v 0.000000 1.500000 -16.750000
v 0.000000 0.114181 -15.822908
v 0.000000 0.439340 -16.310131
v 0.000000 0.925975 -16.635683
v -1.494583 0.000000 -15.174767
v -1.641787 1.500000 -16.669344
v -1.550915 0.114181 -15.746718
v -1.598672 0.439340 -16.231594
v -1.630582 0.925975 -16.555576
v -2.974776 0.000000 -14.955202
v -3.267763 1.500000 -16.428154
v -3.086897 0.114181 -15.518876
v -3.181949 0.439340 -15.996737
v -3.245461 0.925975 -16.316032
v -4.426318 0.000000 -14.591610
v -4.862268 1.500000 -16.028751
v -4.593149 0.114181 -15.141581
v -4.734582 0.439340 -15.607823
v -4.829084 0.925975 -15.919355
v -5.835235 0.000000 -14.087489
v -6.409947 1.500000 -15.474982
v -6.055168 0.114181 -14.618460
v -6.241618 0.439340 -15.068595
v -6.366200 0.925975 -15.369366
v -7.187941 0.000000 -13.447708
v -7.895895 1.500000 -14.772182
v -7.458864 0.114181 -13.954563
v -7.688540 0.439340 -14.384253
v -7.842006 0.925975 -14.671362
v -8.471440 0.000000 -12.678409
v -9.305801 1.500000 -13.927116
v -8.790736 0.114181 -13.156268
v -9.061422 0.439340 -13.561378
v -9.242290 0.925975 -13.832064
v -9.673345 0.000000 -11.787016
v -10.626087 1.500000 -12.947926
v -10.037943 0.114181 -12.231276
v -10.347034 0.439340 -12.607903
v -10.553563 0.925975 -12.859556
v -10.782100 0.000000 -10.782099
v -11.844039 1.500000 -11.844039
v -11.188486 0.114181 -11.188485
v -11.533003 0.439340 -11.533003
v -11.763203 0.925975 -11.763203
v -11.787016 0.000000 -9.673345
v -12.947926 1.500000 -10.626087
v -12.231276 0.114181 -10.037943
v -12.607903 0.439340 -10.347034
v -12.859556 0.925975 -10.553563
v -12.678409 0.000000 -8.471440
v -13.927116 1.500000 -9.305801
v -13.156269 0.114181 -8.790737
v -13.561378 0.439340 -9.061422
v -13.832064 0.925975 -9.242290
v -13.447708 0.000000 -7.187941
v -14.772182 1.500000 -7.895895
v -13.954563 0.114181 -7.458864
v -14.384253 0.439340 -7.688540
v -14.671362 0.925975 -7.842006
v -14.087489 0.000000 -5.835236
v -15.474982 1.500000 -6.409947
v -14.618460 0.114181 -6.055168
v -15.068595 0.439340 -6.241618
v -15.369366 0.925975 -6.366200
v -14.591610 0.000000 -4.426318
v -16.028751 1.500000 -4.862268
v -15.141581 0.114181 -4.593149
v -15.607823 0.439340 -4.734582
v -15.919355 0.925975 -4.829084
v -14.955202 0.000000 -2.974776
v -16.428154 1.500000 -3.267763
v -15.518876 0.114181 -3.086897
v -15.996737 0.439340 -3.181949
v -16.316032 0.925975 -3.245461
v -15.174767 0.000000 -1.494583
v -16.669344 1.500000 -1.641787
v -15.746718 0.114181 -1.550915
v -16.231594 0.439340 -1.598672
v -16.555576 0.925975 -1.630582
v -15.248192 0.000000 0.000000
v -16.750000 1.500000 -0.000000
v -15.822908 0.114181 0.000000
v -16.310131 0.439340 0.000000
v -16.635683 0.925975 0.000000
v -15.174767 0.000000 1.494583
v -16.669344 1.500000 1.641787
v -15.746718 0.114181 1.550915
v -16.231594 0.439340 1.598672
v -16.555576 0.925975 1.630582
v -14.955202 0.000000 2.974776
v -16.428154 1.500000 3.267763
v -15.518876 0.114181 3.086897
v -15.996737 0.439340 3.181949
v -16.316032 0.925975 3.245461
v -14.591610 0.000000 4.426318
v -16.028751 1.500000 4.862268
v -15.141581 0.114181 4.593149
v -15.607823 0.439340 4.734582
v -15.919355 0.925975 4.829084
v -14.087489 0.000000 5.835235
v -15.474982 1.500000 6.409947
v -14.618460 0.114181 6.055168
v -15.068595 0.439340 6.241618
v -15.369366 0.925975 6.366200
v -13.447708 0.000000 7.187941
v -14.772182 1.500000 7.895895
v -13.954563 0.114181 7.458864
v -14.384253 0.439340 7.688540
v -14.671362 0.925975 7.842006
v -12.678409 0.000000 8.471440
v -13.927116 1.500000 9.305801
v -13.156268 0.114181 8.790736
v -13.561378 0.439340 9.061422
v -13.832064 0.925975 9.242290
v -11.787016 0.000000 9.673345
v -12.947926 1.500000 10.626087
v -12.231276 0.114181 10.037943
v -12.607903 0.439340 10.347034
v -12.859556 0.925975 10.553563
v -10.782099 0.000000 10.782100
v -11.844039 1.500000 11.844039
v -11.188485 0.114181 11.188486
v -11.533003 0.439340 11.533003
v -11.763203 0.925975 11.763203
v -9.673345 0.000000 11.787016
v -10.626087 1.500000 12.947926
v -10.037943 0.114181 12.231276
v -10.347034 0.439340 12.607903
v -10.553563 0.925975 12.859556
v -8.471440 0.000000 12.678409
v -9.305801 1.500000 13.927116
v -8.790737 0.114181 13.156269
v -9.061422 0.439340 13.561378
v -9.242290 0.925975 13.832064
v -7.187941 0.000000 13.447708
v -7.895895 1.500000 14.772182
v -7.458864 0.114181 13.954563
v -7.688540 0.439340 14.384253
v -7.842006 0.925975 14.671362
v -5.835236 0.000000 14.087489
v -6.409947 1.500000 15.474982
v -6.055168 0.114181 14.618460
v -6.241618 0.439340 15.068595
v -6.366200 0.925975 15.369366
v -4.426318 0.000000 14.591610
v -4.862268 1.500000 16.028751
v -4.593149 0.114181 15.141581
v -4.734582 0.439340 15.607823
v -4.829084 0.925975 15.919355
v -2.974776 0.000000 14.955202
v -3.267763 1.500000 16.428154
v -3.086897 0.114181 15.518876
v -3.181949 0.439340 15.996737
v -3.245461 0.925975 16.316032
v -1.494583 0.000000 15.174767
v -1.641787 1.500000 16.669344
v -1.550915 0.114181 15.746718
v -1.598672 0.439340 16.231594
v -1.630582 0.925975 16.555576
v 0.000000 0.000000 15.248192
v -0.000000 1.500000 16.750000
v 0.000000 0.114181 15.822908
v 0.000000 0.439340 16.310131
v 0.000000 0.925975 16.635683
v 1.494583 0.000000 15.174767
v 1.641787 1.500000 16.669344
v 1.550915 0.114181 15.746718
v 1.598672 0.439340 16.231594
v 1.630582 0.925975 16.555576
v 2.974776 0.000000 14.955202
v 3.267763 1.500000 16.428154
v 3.086897 0.114181 15.518876
v 3.181949 0.439340 15.996737
v 3.245461 0.925975 16.316032
v 4.426318 0.000000 14.591610
v 4.862268 1.500000 16.028751
v 4.593149 0.114181 15.141581
v 4.734582 0.439340 15.607823
v 4.829084 0.925975 15.919355
v 5.835235 0.000000 14.087489
v 6.409947 1.500000 15.474982
v 6.055168 0.114181 14.618460
v 6.241618 0.439340 15.068595
v 6.366200 0.925975 15.369366
v 7.187941 0.000000 13.447708
v 7.895895 1.500000 14.772182
v 7.458864 0.114181 13.954563
v 7.688540 0.439340 14.384253
v 7.842006 0.925975 14.671362
v 8.471440 0.000000 12.678409
v 9.305801 1.500000 13.927116
v 8.790736 0.114181 13.156268
v 9.061422 0.439340 13.561378
v 9.242290 0.925975 13.832064
v 9.673345 0.000000 11.787016
v 10.626087 1.500000 12.947926
v 10.037943 0.114181 12.231276
v 10.347034 0.439340 12.607903
v 10.553563 0.925975 12.859556
v 10.782100 0.000000 10.782099
v 11.844039 1.500000 11.844039
v 11.188486 0.114181 11.188485
v 11.533003 0.439340 11.533003
v 11.763203 0.925975 11.763203
v 11.787016 0.000000 9.673345
v 12.947926 1.500000 10.626087
v 12.231276 0.114181 10.037943
v 12.607903 0.439340 10.347034
v 12.859556 0.925975 10.553563
v 12.678409 0.000000 8.471440
v 13.927116 1.500000 9.305801
v 13.156269 0.114181 8.790737
v 13.561378 0.439340 9.061422
v 13.832064 0.925975 9.242290
v 13.447708 0.000000 7.187941
v 14.772182 1.500000 7.895895
v 13.954563 0.114181 7.458864
v 14.384253 0.439340 7.688540
v 14.671362 0.925975 7.842006
v 14.087489 0.000000 5.835236
v 15.474982 1.500000 6.409947
v 14.618460 0.114181 6.055168
v 15.068595 0.439340 6.241618
v 15.369366 0.925975 6.366200
v 14.591610 0.000000 4.426318
v 16.028751 1.500000 4.862268
v 15.141581 0.114181 4.593149
v 15.607823 0.439340 4.734582
v 15.919355 0.925975 4.829084
v 14.955202 0.000000 2.974776
v 16.428154 1.500000 3.267763
v 15.518876 0.114181 3.086897
v 15.996737 0.439340 3.181949
v 16.316032 0.925975 3.245461
v 15.174767 0.000000 1.494583
v 16.669344 1.500000 1.641787
v 15.746718 0.114181 1.550915
v 16.231594 0.439340 1.598672
v 16.555576 0.925975 1.630582
v 15.248192 9.000000 0.000000
v 16.750000 7.500000 0.000000
v 15.822908 8.885819 0.000000
v 16.310131 8.560660 0.000000
v 16.635683 8.074025 0.000000
v 15.174767 9.000000 -1.494583
v 16.669344 7.500000 -1.641787
v 15.746718 8.885819 -1.550915
v 16.231594 8.560660 -1.598672
v 16.555576 8.074025 -1.630582
v 14.955202 9.000000 -2.974776
v 16.428154 7.500000 -3.267763
v 15.518876 8.885819 -3.086897
v 15.996737 8.560660 -3.181949
v 16.316032 8.074025 -3.245461
v 14.591610 9.000000 -4.426318
v 16.028751 7.500000 -4.862268
v 15.141581 8.885819 -4.593149
v 15.607823 8.560660 -4.734582
v 15.919355 8.074025 -4.829084
v 14.087489 9.000000 -5.835236
v 15.474982 7.500000 -6.409947
v 14.618460 8.885819 -6.055168
v 15.068595 8.560660 -6.241618
v 15.369366 8.074025 -6.366200
v 13.447708 9.000000 -7.187941
v 14.772182 7.500000 -7.895895
v 13.954563 8.885819 -7.458864
v 14.384253 8.560660 -7.688540
v 14.671362 8.074025 -7.842006
v 12.678409 9.000000 -8.471440
v 13.927116 7.500000 -9.305801
v 13.156269 8.885819 -8.790737
v 13.561378 8.560660 -9.061422
v 13.832064 8.074025 -9.242290
v 11.787016 9.000000 -9.673345
v 12.947926 7.500000 -10.626087
v 12.231276 8.885819 -10.037943
v 12.607903 8.560660 -10.347034
v 12.859556 8.074025 -10.553563
v 10.782100 9.000000 -10.782099
v 11.844039 7.500000 -11.844039
v 11.188486 8.885819 -11.188485
v 11.533003 8.560660 -11.533003
v 11.763203 8.074025 -11.763203
v 9.673345 9.000000 -11.787016
v 10.626087 7.500000 -12.947926
v 10.037943 8.885819 -12.231276
v 10.347034 8.560660 -12.607903
v 10.553563 8.074025 -12.859556
v 8.471440 9.000000 -12.678409
v 9.305801 7.500000 -13.927116
v 8.790736 8.885819 -13.156268
v 9.061422 8.560660 -13.561378
v 9.242290 8.074025 -13.832064
v 7.187941 9.000000 -13.447708
v 7.895895 7.500000 -14.772182
v 7.458864 8.885819 -13.954563
v 7.688540 8.560660 -14.384253
v 7.842006 8.074025 -14.671362
v 5.835235 9.000000 -14.087489
v 6.409947 7.500000 -15.474982
v 6.055168 8.885819 -14.618460
v 6.241618 8.560660 -15.068595
v 6.366200 8.074025 -15.369366
v 4.426318 9.000000 -14.591610
v 4.862268 7.500000 -16.028751
v 4.593149 8.885819 -15.141581
v 4.734582 8.560660 -15.607823
v 4.829084 8.074025 -15.919355
v 2.974776 9.000000 -14.955202
v 3.267763 7.500000 -16.428154
v 3.086897 8.885819 -15.518876
v 3.181949 8.560660 -15.996737
v 3.245461 8.074025 -16.316032
v 1.494583 9.000000 -15.174767
v 1.641787 7.500000 -16.669344
v 1.550915 8.885819 -15.746718
v 1.598672 8.560660 -16.231594
v 1.630582 8.074025 -16.555576
v 0.000000 9.000000 -15.248192
v 0.000000 7.500000 -16.750000
v 0.000000 8.885819 -15.822908
v 0.000000 8.560660 -16.310131
v 0.000000 8.074025 -16.635683
v -1.494583 9.000000 -15.174767
v -1.641787 7.500000 -16.669344
v -1.550915 8.885819 -15.746718
v -1.598672 8.560660 -16.231594
v -1.630582 8.074025 -16.555576
v -2.974776 9.000000 -14.955202
v -3.267763 7.500000 -16.428154
v -3.086897 8.885819 -15.518876
v -3.181949 8.560660 -15.996737
v -3.245461 8.074025 -16.316032
v -4.426318 9.000000 -14.591610
v -4.862268 7.500000 -16.028751
v -4.593149 8.885819 -15.141581
v -4.734582 8.560660 -15.607823
v -4.829084 8.074025 -15.919355
v -5.835236 9.000000 -14.087489
v -6.409947 7.500000 -15.474982
v -6.055168 8.885819 -14.618460
v -6.241618 8.560660 -15.068595
v -6.366200 8.074025 -15.369366
v -7.187941 9.000000 -13.447708
v -7.895895 7.500000 -14.772182
v -7.458864 8.885819 -13.954563
v -7.688540 8.560660 -14.384253
v -7.842006 8.074025 -14.671362
v -8.471440 9.000000 -12.678409
v -9.305801 7.500000 -13.927116
v -8.790737 8.885819 -13.156269
v -9.061422 8.560660 -13.561378
v -9.242290 8.074025 -13.832064
v -9.673345 9.000000 -11.787016
v -10.626087 7.500000 -12.947926
v -10.037943 8.885819 -12.231276
v -10.347034 8.560660 -12.607903
v -10.553563 8.074025 -12.859556
v -10.782099 9.000000 -10.782100
v -11.844039 7.500000 -11.844039
v -11.188485 8.885819 -11.188486
v -11.533003 8.560660 -11.533003
v -11.763203 8.074025 -11.763203
v -11.787016 9.000000 -9.673345
v -12.947926 7.500000 -10.626087
v -12.231276 8.885819 -10.037943
v -12.607903 8.560660 -10.347034
v -12.859556 8.074025 -10.553563
v -12.678409 9.000000 -8.471440
v -13.927116 7.500000 -9.305801
v -13.156268 8.885819 -8.790736
v -13.561378 8.560660 -9.061422
v -13.832064 8.074025 -9.242290
v -13.447708 9.000000 -7.187941
v -14.772182 7.500000 -7.895895
v -13.954563 8.885819 -7.458864
v -14.384253 8.560660 -7.688540
v -14.671362 8.074025 -7.842006
v -14.087489 9.000000 -5.835235
v -15.474982 7.500000 -6.409947
v -14.618460 8.885819 -6.055168
v -15.068595 8.560660 -6.241618
v -15.369366 8.074025 -6.366200
v -14.591610 9.000000 -4.426318
v -16.028751 7.500000 -4.862268
v -15.141581 8.885819 -4.593149
v -15.607823 8.560660 -4.734582
v -15.919355 8.074025 -4.829084
v -14.955202 9.000000 -2.974776
v -16.428154 7.500000 -3.267763
v -15.518876 8.885819 -3.086897
v -15.996737 8.560660 -3.181949
v -16.316032 8.074025 -3.245461
v -15.174767 9.000000 -1.494583
v -16.669344 7.500000 -1.641787
v -15.746718 8.885819 -1.550915
v -16.231594 8.560660 -1.598672
v -16.555576 8.074025 -1.630582
v -15.248192 9.000000 0.000000
v -16.750000 7.500000 -0.000000
v -15.822908 8.885819 0.000000
v -16.310131 8.560660 0.000000
v -16.635683 8.074025 0.000000
v -15.174767 9.000000 1.494583
v -16.669344 7.500000 1.641787
v -15.746718 8.885819 1.550915
v -16.231594 8.560660 1.598672
v -16.555576 8.074025 1.630582
v -14.955202 9.000000 2.974776
v -16.428154 7.500000 3.267763
v -15.518876 8.885819 3.086897
v -15.996737 8.560660 3.181949
v -16.316032 8.074025 3.245461
v -14.591610 9.000000 4.426318
v -16.028751 7.500000 4.862268
v -15.141581 8.885819 4.593149
v -15.607823 8.560660 4.734582
v -15.919355 8.074025 4.829084
v -14.087489 9.000000 5.835236
v -15.474982 7.500000 6.409947
v -14.618460 8.885819 6.055168
v -15.068595 8.560660 6.241618
v -15.369366 8.074025 6.366200
v -13.447708 9.000000 7.187941
v -14.772182 7.500000 7.895895
v -13.954563 8.885819 7.458864
v -14.384253 8.560660 7.688540
v -14.671362 8.074025 7.842006
v -12.678409 9.000000 8.471440
v -13.927116 7.500000 9.305801
v -13.156269 8.885819 8.790737
v -13.561378 8.560660 9.061422
v -13.832064 8.074025 9.242290
v -11.787016 9.000000 9.673345
v -12.947926 7.500000 10.626087
v -12.231276 8.885819 10.037943
v -12.607903 8.560660 10.347034
v -12.859556 8.074025 10.553563
v -10.782100 9.000000 10.782099
v -11.844039 7.500000 11.844039
v -11.188486 8.885819 11.188485
v -11.533003 8.560660 11.533003
v -11.763203 8.074025 11.763203
v -9.673345 9.000000 11.787016
v -10.626087 7.500000 12.947926
v -10.037943 8.885819 12.231276
v -10.347034 8.560660 12.607903
v -10.553563 8.074025 12.859556
v -8.471440 9.000000 12.678409
v -9.305801 7.500000 13.927116
v -8.790736 8.885819 13.156268
v -9.061422 8.560660 13.561378
v -9.242290 8.074025 13.832064
v -7.187941 9.000000 13.447708
v -7.895895 7.500000 14.772182
v -7.458864 8.885819 13.954563
v -7.688540 8.560660 14.384253
v -7.842006 8.074025 14.671362
v -5.835235 9.000000 14.087489
v -6.409947 7.500000 15.474982
v -6.055168 8.885819 14.618460
v -6.241618 8.560660 15.068595
v -6.366200 8.074025 15.369366
v -4.426318 9.000000 14.591610
v -4.862268 7.500000 16.028751
v -4.593149 8.885819 15.141581
v -4.734582 8.560660 15.607823
v -4.829084 8.074025 15.919355
v -2.974776 9.000000 14.955202
v -3.267763 7.500000 16.428154
v -3.086897 8.885819 15.518876
v -3.181949 8.560660 15.996737
v -3.245461 8.074025 16.316032
v -1.494583 9.000000 15.174767
v -1.641787 7.500000 16.669344
v -1.550915 8.885819 15.746718
v -1.598672 8.560660 16.231594
v -1.630582 8.074025 16.555576
v 0.000000 9.000000 15.248192
v -0.000000 7.500000 16.750000
v 0.000000 8.885819 15.822908
v 0.000000 8.560660 16.310131
v 0.000000 8.074025 16.635683
v 1.494583 9.000000 15.174767
v 1.641787 7.500000 16.669344
v 1.550915 8.885819 15.746718
v 1.598672 8.560660 16.231594
v 1.630582 8.074025 16.555576
v 2.974776 9.000000 14.955202
v 3.267763 7.500000 16.428154
v 3.086897 8.885819 15.518876
v 3.181949 8.560660 15.996737
v 3.245461 8.074025 16.316032
v 4.426318 9.000000 14.591610
v 4.862268 7.500000 16.028751
v 4.593149 8.885819 15.141581
v 4.734582 8.560660 15.607823
v 4.829084 8.074025 15.919355
v 5.835236 9.000000 14.087489
v 6.409947 7.500000 15.474982
v 6.055168 8.885819 14.618460
v 6.241618 8.560660 15.068595
v 6.366200 8.074025 15.369366
v 7.187941 9.000000 13.447708
v 7.895895 7.500000 14.772182
v 7.458864 8.885819 13.954563
v 7.688540 8.560660 14.384253
v 7.842006 8.074025 14.671362
v 8.471440 9.000000 12.678409
v 9.305801 7.500000 13.927116
v 8.790737 8.885819 13.156269
v 9.061422 8.560660 13.561378
v 9.242290 8.074025 13.832064
v 9.673345 9.000000 11.787016
v 10.626087 7.500000 12.947926
v 10.037943 8.885819 12.231276
v 10.347034 8.560660 12.607903
v 10.553563 8.074025 12.859556
v 10.782099 9.000000 10.782100
v 11.844039 7.500000 11.844039
v 11.188485 8.885819 11.188486
v 11.533003 8.560660 11.533003
v 11.763203 8.074025 11.763203
v 11.787016 9.000000 9.673345
v 12.947926 7.500000 10.626087
v 12.231276 8.885819 10.037943
v 12.607903 8.560660 10.347034
v 12.859556 8.074025 10.553563
v 12.678409 9.000000 8.471440
v 13.927116 7.500000 9.305801
v 13.156268 8.885819 8.790736
v 13.561378 8.560660 9.061422
v 13.832064 8.074025 9.242290
v 13.447708 9.000000 7.187941
v 14.772182 7.500000 7.895895
v 13.954563 8.885819 7.458864
v 14.384253 8.560660 7.688540
v 14.671362 8.074025 7.842006
v 14.087489 9.000000 5.835235
v 15.474982 7.500000 6.409947
v 14.618460 8.885819 6.055168
v 15.068595 8.560660 6.241618
v 15.369366 8.074025 6.366200
v 14.591610 9.000000 4.426318
v 16.028751 7.500000 4.862268
v 15.141581 8.885819 4.593149
v 15.607823 8.560660 4.734582
v 15.919355 8.074025 4.829084
v 14.955202 9.000000 2.974776
v 16.428154 7.500000 3.267763
v 15.518876 8.885819 3.086897
v 15.996737 8.560660 3.181949
v 16.316032 8.074025 3.245461
v 15.174767 9.000000 1.494583
v 16.669344 7.500000 1.641787
v 15.746718 8.885819 1.550915
v 16.231594 8.560660 1.598672
v 16.555576 8.074025 1.630582
vn 1.0000 -0.0000 -0.0000
vn 0.9952 -0.0000 -0.0980
vn 0.9808 -0.0000 -0.1951
vn 0.9569 -0.0000 -0.2903
vn 0.9239 -0.0000 -0.3827
vn 0.8819 -0.0000 -0.4714
vn 0.8315 -0.0000 -0.5556
vn 0.7730 -0.0000 -0.6344
vn 0.7071 -0.0000 -0.7071
vn 0.6344 -0.0000 -0.7730
vn 0.5556 -0.0000 -0.8315
vn 0.4714 -0.0000 -0.8819
vn 0.3827 -0.0000 -0.9239
vn 0.2903 -0.0000 -0.9569
vn 0.1951 -0.0000 -0.9808
vn 0.0980 -0.0000 -0.9952
vn -0.0000 -0.0000 -1.0000
vn -0.0980 -0.0000 -0.9952
vn -0.1951 -0.0000 -0.9808
vn -0.2903 -0.0000 -0.9569
vn -0.3827 -0.0000 -0.9239
vn -0.4714 -0.0000 -0.8819
vn -0.5556 -0.0000 -0.8315
vn -0.6344 -0.0000 -0.7730
vn -0.7071 -0.0000 -0.7071
vn -0.7730 -0.0000 -0.6344
vn -0.8315 -0.0000 -0.5556
vn -0.8819 -0.0000 -0.4714
vn -0.9239 -0.0000 -0.3827
vn -0.9569 -0.0000 -0.2903
vn -0.9808 -0.0000 -0.1951
vn -0.9952 -0.0000 -0.0980
vn -1.0000 -0.0000 -0.0000
vn -0.9952 -0.0000 0.0980
vn -0.9808 -0.0000 0.1951
vn -0.9569 -0.0000 0.2903
vn -0.9239 -0.0000 0.3827
vn -0.8819 -0.0000 0.4714
vn -0.8315 -0.0000 0.5556
vn -0.7730 -0.0000 0.6344
vn -0.7071 -0.0000 0.7071
vn -0.6344 -0.0000 0.7730
vn -0.5556 -0.0000 0.8315
vn -0.4714 -0.0000 0.8819
vn -0.3827 -0.0000 0.9239
vn -0.2903 -0.0000 0.9569
vn -0.1951 -0.0000 0.9808
vn -0.0980 -0.0000 0.9952
vn -0.0000 -0.0000 1.0000
vn 0.0980 -0.0000 0.9952
vn 0.1951 -0.0000 0.9808
vn 0.2903 -0.0000 0.9569
vn 0.3827 -0.0000 0.9239
vn 0.4714 -0.0000 0.8819
vn 0.5556 -0.0000 0.8315
vn 0.6344 -0.0000 0.7730
vn 0.7071 -0.0000 0.7071
vn 0.7730 -0.0000 0.6344
vn 0.8315 -0.0000 0.5556
vn 0.8819 -0.0000 0.4714
vn 0.9239 -0.0000 0.3827
vn 0.9569 -0.0000 0.2903
vn 0.9808 -0.0000 0.1951
vn 0.9952 -0.0000 0.0980
vn 0.1009 -0.9949 -0.0000
vn 0.9952 -0.0978 -0.0000
vn 0.3875 -0.9219 -0.0000
vn 0.7097 -0.7045 -0.0000
vn 0.9246 -0.3809 -0.0000
vn 0.1004 -0.9949 -0.0099
vn 0.9904 -0.0978 -0.0975
vn 0.3856 -0.9219 -0.0380
vn 0.7063 -0.7045 -0.0696
vn 0.9202 -0.3809 -0.0906
vn 0.0990 -0.9949 -0.0197
vn 0.9761 -0.0978 -0.1942
vn 0.3800 -0.9219 -0.0756
vn 0.6961 -0.7045 -0.1385
vn 0.9068 -0.3809 -0.1804
vn 0.0966 -0.9949 -0.0293
vn 0.9523 -0.0978 -0.2889
vn 0.3708 -0.9219 -0.1125
vn 0.6792 -0.7045 -0.2060
vn 0.8848 -0.3809 -0.2684
vn 0.0932 -0.9949 -0.0386
vn 0.9194 -0.0978 -0.3808
vn 0.3580 -0.9219 -0.1483
vn 0.6557 -0.7045 -0.2716
vn 0.8542 -0.3809 -0.3538
vn 0.0890 -0.9949 -0.0476
vn 0.8777 -0.0978 -0.4691
vn 0.3417 -0.9219 -0.1827
vn 0.6259 -0.7045 -0.3346
vn 0.8154 -0.3809 -0.4359
vn 0.0839 -0.9949 -0.0561
vn 0.8275 -0.0978 -0.5529
vn 0.3222 -0.9219 -0.2153
vn 0.5901 -0.7045 -0.3943
vn 0.7688 -0.3809 -0.5137
vn 0.0780 -0.9949 -0.0640
vn 0.7693 -0.0978 -0.6313
vn 0.2995 -0.9219 -0.2458
vn 0.5486 -0.7045 -0.4503
vn 0.7147 -0.3809 -0.5866
vn 0.0714 -0.9949 -0.0714
vn 0.7037 -0.0978 -0.7037
vn 0.2740 -0.9219 -0.2740
vn 0.5019 -0.7045 -0.5019
vn 0.6538 -0.3809 -0.6538
vn 0.0640 -0.9949 -0.0780
vn 0.6313 -0.0978 -0.7693
vn 0.2458 -0.9219 -0.2995
vn 0.4503 -0.7045 -0.5486
vn 0.5866 -0.3809 -0.7147
vn 0.0561 -0.9949 -0.0839
vn 0.5529 -0.0978 -0.8275
vn 0.2153 -0.9219 -0.3222
vn 0.3943 -0.7045 -0.5901
vn 0.5137 -0.3809 -0.7688
vn 0.0476 -0.9949 -0.0890
vn 0.4691 -0.0978 -0.8777
vn 0.1827 -0.9219 -0.3417
vn 0.3346 -0.7045 -0.6259
vn 0.4359 -0.3809 -0.8154
vn 0.0386 -0.9949 -0.0932
vn 0.3808 -0.0978 -0.9194
vn 0.1483 -0.9219 -0.3580
vn 0.2716 -0.7045 -0.6557
vn 0.3538 -0.3809 -0.8542
vn 0.0293 -0.9949 -0.0966
vn 0.2889 -0.0978 -0.9523
vn 0.1125 -0.9219 -0.3708
vn 0.2060 -0.7045 -0.6792
vn 0.2684 -0.3809 -0.8848
vn 0.0197 -0.9949 -0.0990
vn 0.1942 -0.0978 -0.9761
vn 0.0756 -0.9219 -0.3800
vn 0.1385 -0.7045 -0.6961
vn 0.1804 -0.3809 -0.9068
vn 0.0099 -0.9949 -0.1004
vn 0.0975 -0.0978 -0.9904
vn 0.0380 -0.9219 -0.3856
vn 0.0696 -0.7045 -0.7063
vn 0.0906 -0.3809 -0.9202
vn -0.0000 -0.9949 -0.1009
vn -0.0000 -0.0978 -0.9952
vn -0.0000 -0.9219 -0.3875
vn -0.0000 -0.7045 -0.7097
vn -0.0000 -0.3809 -0.9246
vn -0.0099 -0.9949 -0.1004
vn -0.0975 -0.0978 -0.9904
vn -0.0380 -0.9219 -0.3856
vn -0.0696 -0.7045 -0.7063
vn -0.0906 -0.3809 -0.9202
vn -0.0197 -0.9949 -0.0990
vn -0.1942 -0.0978 -0.9761
vn -0.0756 -0.9219 -0.3800
vn -0.1385 -0.7045 -0.6961
vn -0.1804 -0.3809 -0.9068
vn -0.0293 -0.9949 -0.0966
vn -0.2889 -0.0978 -0.9523
vn -0.1125 -0.9219 -0.3708
vn -0.2060 -0.7045 -0.6792
vn -0.2684 -0.3809 -0.8848
vn -0.0386 -0.9949 -0.0932
vn -0.3808 -0.0978 -0.9194
vn -0.1483 -0.9219 -0.3580
vn -0.2716 -0.7045 -0.6557
vn -0.3538 -0.3809 -0.8542
vn -0.0476 -0.9949 -0.0890
vn -0.4691 -0.0978 -0.8777
vn -0.1827 -0.9219 -0.3417
vn -0.3346 -0.7045 -0.6259
vn -0.4359 -0.3809 -0.8154
vn -0.0561 -0.9949 -0.0839
vn -0.5529 -0.0978 -0.8275
vn -0.2153 -0.9219 -0.3222
vn -0.3943 -0.7045 -0.5901
vn -0.5137 -0.3809 -0.7688
vn -0.0640 -0.9949 -0.0780
vn -0.6313 -0.0978 -0.7693
vn -0.2458 -0.9219 -0.2995
vn -0.4503 -0.7045 -0.5486
vn -0.5866 -0.3809 -0.7147
vn -0.0714 -0.9949 -0.0714
vn -0.7037 -0.0978 -0.7037
vn -0.2740 -0.9219 -0.2740
vn -0.5019 -0.7045 -0.5019
vn -0.6538 -0.3809 -0.6538
vn -0.0780 -0.9949 -0.0640
vn -0.7693 -0.0978 -0.6313
vn -0.2995 -0.9219 -0.2458
vn -0.5486 -0.7045 -0.4503
vn -0.7147 -0.3809 -0.5866
vn -0.0839 -0.9949 -0.0561
vn -0.8275 -0.0978 -0.5529
vn -0.3222 -0.9219 -0.2153
vn -0.5901 -0.7045 -0.3943
vn -0.7688 -0.3809 -0.5137
vn -0.0890 -0.9949 -0.0476
vn -0.8777 -0.0978 -0.4691
vn -0.3417 -0.9219 -0.1827
vn -0.6259 -0.7045 -0.3346
vn -0.8154 -0.3809 -0.4359
vn -0.0932 -0.9949 -0.0386
vn -0.9194 -0.0978 -0.3808
vn -0.3580 -0.9219 -0.1483
vn -0.6557 -0.7045 -0.2716
vn -0.8542 -0.3809 -0.3538
vn -0.0966 -0.9949 -0.0293
vn -0.9523 -0.0978 -0.2889
vn -0.3708 -0.9219 -0.1125
vn -0.6792 -0.7045 -0.2060
vn -0.8848 -0.3809 -0.2684
vn -0.0990 -0.9949 -0.0197
vn -0.9761 -0.0978 -0.1942
vn -0.3800 -0.9219 -0.0756
vn -0.6961 -0.7045 -0.1385
vn -0.9068 -0.3809 -0.1804
vn -0.1004 -0.9949 -0.0099
vn -0.9904 -0.0978 -0.0975
vn -0.3856 -0.9219 -0.0380
vn -0.7063 -0.7045 -0.0696
vn -0.9202 -0.3809 -0.0906
vn -0.1009 -0.9949 -0.0000
vn -0.9952 -0.0978 -0.0000
vn -0.3875 -0.9219 -0.0000
vn -0.7097 -0.7045 -0.0000
vn -0.9246 -0.3809 -0.0000
vn -0.1004 -0.9949 0.0099
vn -0.9904 -0.0978 0.0975
vn -0.3856 -0.9219 0.0380
vn -0.7063 -0.7045 0.0696
vn -0.9202 -0.3809 0.0906
vn -0.0990 -0.9949 0.0197
vn -0.9761 -0.0978 0.1942
vn -0.3800 -0.9219 0.0756
vn -0.6961 -0.7045 0.1385
vn -0.9068 -0.3809 0.1804
vn -0.0966 -0.9949 0.0293
vn -0.9523 -0.0978 0.2889
vn -0.3708 -0.9219 0.1125
vn -0.6792 -0.7045 0.2060
vn -0.8848 -0.3809 0.2684
vn -0.0932 -0.9949 0.0386
vn -0.9194 -0.0978 0.3808
vn -0.3580 -0.9219 0.1483
vn -0.6557 -0.7045 0.2716
vn -0.8542 -0.3809 0.3538
vn -0.0890 -0.9949 0.0476
vn -0.8777 -0.0978 0.4691
vn -0.3417 -0.9219 0.1827
vn -0.6259 -0.7045 0.3346
vn -0.8154 -0.3809 0.4359
vn -0.0839 -0.9949 0.0561
vn -0.8275 -0.0978 0.5529
vn -0.3222 -0.9219 0.2153
vn -0.5901 -0.7045 0.3943
vn -0.7688 -0.3809 0.5137
vn -0.0780 -0.9949 0.0640
vn -0.7693 -0.0978 0.6313
vn -0.2995 -0.9219 0.2458
vn -0.5486 -0.7045 0.4503
vn -0.7147 -0.3809 0.5866
vn -0.0714 -0.9949 0.0714
vn -0.7037 -0.0978 0.7037
vn -0.2740 -0.9219 0.2740
vn -0.5019 -0.7045 0.5019
vn -0.6538 -0.3809 0.6538
vn -0.0640 -0.9949 0.0780
vn -0.6313 -0.0978 0.7693
vn -0.2458 -0.9219 0.2995
vn -0.4503 -0.7045 0.5486
vn -0.5866 -0.3809 0.7147
vn -0.0561 -0.9949 0.0839
vn -0.5529 -0.0978 0.8275
vn -0.2153 -0.9219 0.3222
vn -0.3943 -0.7045 0.5901
vn -0.5137 -0.3809 0.7688
vn -0.0476 -0.9949 0.0890
vn -0.4691 -0.0978 0.8777
vn -0.1827 -0.9219 0.3417
vn -0.3346 -0.7045 0.6259
vn -0.4359 -0.3809 0.8154
vn -0.0386 -0.9949 0.0932
vn -0.3808 -0.0978 0.9194
vn -0.1483 -0.9219 0.3580
vn -0.2716 -0.7045 0.6557
vn -0.3538 -0.3809 0.8542
vn -0.0293 -0.9949 0.0966
vn -0.2889 -0.0978 0.9523
vn -0.1125 -0.9219 0.3708
vn -0.2060 -0.7045 0.6792
vn -0.2684 -0.3809 0.8848
vn -0.0197 -0.9949 0.0990
vn -0.1942 -0.0978 0.9761
vn -0.0756 -0.9219 0.3800
vn -0.1385 -0.7045 0.6961
vn -0.1804 -0.3809 0.9068
vn -0.0099 -0.9949 0.1004
vn -0.0975 -0.0978 0.9904
vn -0.0380 -0.9219 0.3856
vn -0.0696 -0.7045 0.7063
vn -0.0906 -0.3809 0.9202
vn -0.0000 -0.9949 0.1009
vn -0.0000 -0.0978 0.9952
vn -0.0000 -0.9219 0.3875
vn -0.0000 -0.7045 0.7097
vn -0.0000 -0.3809 0.9246
vn 0.0099 -0.9949 0.1004
vn 0.0975 -0.0978 0.9904
vn 0.0380 -0.9219 0.3856
vn 0.0696 -0.7045 0.7063
vn 0.0906 -0.3809 0.9202
vn 0.0197 -0.9949 0.0990
vn 0.1942 -0.0978 0.9761
vn 0.0756 -0.9219 0.3800
vn 0.1385 -0.7045 0.6961
vn 0.1804 -0.3809 0.9068
vn 0.0293 -0.9949 0.0966
vn 0.2889 -0.0978 0.9523
vn 0.1125 -0.9219 0.3708
vn 0.2060 -0.7045 0.6792
vn 0.2684 -0.3809 0.8848
vn 0.0386 -0.9949 0.0932
vn 0.3808 -0.0978 0.9194
vn 0.1483 -0.9219 0.3580
vn 0.2716 -0.7045 0.6557
vn 0.3538 -0.3809 0.8542
vn 0.0476 -0.9949 0.0890
vn 0.4691 -0.0978 0.8777
vn 0.1827 -0.9219 0.3417
vn 0.3346 -0.7045 0.6259
vn 0.4359 -0.3809 0.8154
vn 0.0561 -0.9949 0.0839
vn 0.5529 -0.0978 0.8275
vn 0.2153 -0.9219 0.3222
vn 0.3943 -0.7045 0.5901
vn 0.5137 -0.3809 0.7688
vn 0.0640 -0.9949 0.0780
vn 0.6313 -0.0978 0.7693
vn 0.2458 -0.9219 0.2995
vn 0.4503 -0.7045 0.5486
vn 0.5866 -0.3809 0.7147
vn 0.0714 -0.9949 0.0714
vn 0.7037 -0.0978 0.7037
vn 0.2740 -0.9219 0.2740
vn 0.5019 -0.7045 0.5019
vn 0.6538 -0.3809 0.6538
vn 0.0780 -0.9949 0.0640
vn 0.7693 -0.0978 0.6313
vn 0.2995 -0.9219 0.2458
vn 0.5486 -0.7045 0.4503
vn 0.7147 -0.3809 0.5866
vn 0.0839 -0.9949 0.0561
vn 0.8275 -0.0978 0.5529
vn 0.3222 -0.9219 0.2153
vn 0.5901 -0.7045 0.3943
vn 0.7688 -0.3809 0.5137
vn 0.0890 -0.9949 0.0476
vn 0.8777 -0.0978 0.4691
vn 0.3417 -0.9219 0.1827
vn 0.6259 -0.7045 0.3346
vn 0.8154 -0.3809 0.4359
vn 0.0932 -0.9949 0.0386
vn 0.9194 -0.0978 0.3808
vn 0.3580 -0.9219 0.1483
vn 0.6557 -0.7045 0.2716
vn 0.8542 -0.3809 0.3538
vn 0.0966 -0.9949 0.0293
vn 0.9523 -0.0978 0.2889
vn 0.3708 -0.9219 0.1125
vn 0.6792 -0.7045 0.2060
vn 0.8848 -0.3809 0.2684
vn 0.0990 -0.9949 0.0197
vn 0.9761 -0.0978 0.1942
vn 0.3800 -0.9219 0.0756
vn 0.6961 -0.7045 0.1385
vn 0.9068 -0.3809 0.1804
vn 0.1004 -0.9949 0.0099
vn 0.9904 -0.0978 0.0975
vn 0.3856 -0.9219 0.0380
vn 0.7063 -0.7045 0.0696
vn 0.9202 -0.3809 0.0906
vn 0.1009 0.9949 -0.0000
vn 0.9952 0.0978 -0.0000
vn 0.3875 0.9219 -0.0000
vn 0.7097 0.7045 -0.0000
vn 0.9246 0.3809 -0.0000
vn 0.1004 0.9949 -0.0099
vn 0.9904 0.0978 -0.0975
vn 0.3856 0.9219 -0.0380
vn 0.7063 0.7045 -0.0696
vn 0.9202 0.3809 -0.0906
vn 0.0990 0.9949 -0.0197
vn 0.9761 0.0978 -0.1942
vn 0.3800 0.9219 -0.0756
vn 0.6961 0.7045 -0.1385
vn 0.9068 0.3809 -0.1804
vn 0.0966 0.9949 -0.0293
vn 0.9523 0.0978 -0.2889
vn 0.3708 0.9219 -0.1125
vn 0.6792 0.7045 -0.2060
vn 0.8848 0.3809 -0.2684
vn 0.0932 0.9949 -0.0386
vn 0.9194 0.0978 -0.3808
vn 0.3580 0.9219 -0.1483
vn 0.6557 0.7045 -0.2716
vn 0.8542 0.3809 -0.3538
vn 0.0890 0.9949 -0.0476
vn 0.8777 0.0978 -0.4691
vn 0.3417 0.9219 -0.1827
vn 0.6259 0.7045 -0.3346
vn 0.8154 0.3809 -0.4359
vn 0.0839 0.9949 -0.0561
vn 0.8275 0.0978 -0.5529
vn 0.3222 0.9219 -0.2153
vn 0.5901 0.7045 -0.3943
vn 0.7688 0.3809 -0.5137
vn 0.0780 0.9949 -0.0640
vn 0.7693 0.0978 -0.6313
vn 0.2995 0.9219 -0.2458
vn 0.5486 0.7045 -0.4503
vn 0.7147 0.3809 -0.5866
vn 0.0714 0.9949 -0.0714
vn 0.7037 0.0978 -0.7037
vn 0.2740 0.9219 -0.2740
vn 0.5019 0.7045 -0.5019
vn 0.6538 0.3809 -0.6538
vn 0.0640 0.9949 -0.0780
vn 0.6313 0.0978 -0.7693
vn 0.2458 0.9219 -0.2995
vn 0.4503 0.7045 -0.5486
vn 0.5866 0.3809 -0.7147
vn 0.0561 0.9949 -0.0839
vn 0.5529 0.0978 -0.8275
vn 0.2153 0.9219 -0.3222
vn 0.3943 0.7045 -0.5901
vn 0.5137 0.3809 -0.7688
vn 0.0476 0.9949 -0.0890
vn 0.4691 0.0978 -0.8777
vn 0.1827 0.9219 -0.3417
vn 0.3346 0.7045 -0.6259
vn 0.4359 0.3809 -0.8154
vn 0.0386 0.9949 -0.0932
vn 0.3808 0.0978 -0.9194
vn 0.1483 0.9219 -0.3580
vn 0.2716 0.7045 -0.6557
vn 0.3538 0.3809 -0.8542
vn 0.0293 0.9949 -0.0966
vn 0.2889 0.0978 -0.9523
vn 0.1125 0.9219 -0.3708
vn 0.2060 0.7045 -0.6792
vn 0.2684 0.3809 -0.8848
vn 0.0197 0.9949 -0.0990
vn 0.1942 0.0978 -0.9761
vn 0.0756 0.9219 -0.3800
vn 0.1385 0.7045 -0.6961
vn 0.1804 0.3809 -0.9068
vn 0.0099 0.9949 -0.1004
vn 0.0975 0.0978 -0.9904
vn 0.0380 0.9219 -0.3856
vn 0.0696 0.7045 -0.7063
vn 0.0906 0.3809 -0.9202
vn -0.0000 0.9949 -0.1009
vn -0.0000 0.0978 -0.9952
vn -0.0000 0.9219 -0.3875
vn -0.0000 0.7045 -0.7097
vn -0.0000 0.3809 -0.9246
vn -0.0099 0.9949 -0.1004
vn -0.0975 0.0978 -0.9904
vn -0.0380 0.9219 -0.3856
vn -0.0696 0.7045 -0.7063
vn -0.0906 0.3809 -0.9202
vn -0.0197 0.9949 -0.0990
vn -0.1942 0.0978 -0.9761
vn -0.0756 0.9219 -0.3800
vn -0.1385 0.7045 -0.6961
vn -0.1804 0.3809 -0.9068
vn -0.0293 0.9949 -0.0966
vn -0.2889 0.0978 -0.9523
vn -0.1125 0.9219 -0.3708
vn -0.2060 0.7045 -0.6792
vn -0.2684 0.3809 -0.8848
vn -0.0386 0.9949 -0.0932
vn -0.3808 0.0978 -0.9194
vn -0.1483 0.9219 -0.3580
vn -0.2716 0.7045 -0.6557
vn -0.3538 0.3809 -0.8542
vn -0.0476 0.9949 -0.0890
vn -0.4691 0.0978 -0.8777
vn -0.1827 0.9219 -0.3417
vn -0.3346 0.7045 -0.6259
vn -0.4359 0.3809 -0.8154
vn -0.0561 0.9949 -0.0839
vn -0.5529 0.0978 -0.8275
vn -0.2153 0.9219 -0.3222
vn -0.3943 0.7045 -0.5901
vn -0.5137 0.3809 -0.7688
vn -0.0640 0.9949 -0.0780
vn -0.6313 0.0978 -0.7693
vn -0.2458 0.9219 -0.2995
vn -0.4503 0.7045 -0.5486
vn -0.5866 0.3809 -0.7147
vn -0.0714 0.9949 -0.0714
vn -0.7037 0.0978 -0.7037
vn -0.2740 0.9219 -0.2740
vn -0.5019 0.7045 -0.5019
vn -0.6538 0.3809 -0.6538
vn -0.0780 0.9949 -0.0640
vn -0.7693 0.0978 -0.6313
vn -0.2995 0.9219 -0.2458
vn -0.5486 0.7045 -0.4503
vn -0.7147 0.3809 -0.5866
vn -0.0839 0.9949 -0.0561
vn -0.8275 0.0978 -0.5529
vn -0.3222 0.9219 -0.2153
vn -0.5901 0.7045 -0.3943
vn -0.7688 0.3809 -0.5137
vn -0.0890 0.9949 -0.0476
vn -0.8777 0.0978 -0.4691
vn -0.3417 0.9219 -0.1827
vn -0.6259 0.7045 -0.3346
vn -0.8154 0.3809 -0.4359
vn -0.0932 0.9949 -0.0386
vn -0.9194 0.0978 -0.3808
vn -0.3580 0.9219 -0.1483
vn -0.6557 0.7045 -0.2716
vn -0.8542 0.3809 -0.3538
vn -0.0966 0.9949 -0.0293
vn -0.9523 0.0978 -0.2889
vn -0.3708 0.9219 -0.1125
vn -0.6792 0.7045 -0.2060
vn -0.8848 0.3809 -0.2684
vn -0.0990 0.9949 -0.0197
vn -0.9761 0.0978 -0.1942
vn -0.3800 0.9219 -0.0756
vn -0.6961 0.7045 -0.1385
vn -0.9068 0.3809 -0.1804
vn -0.1004 0.9949 -0.0099
vn -0.9904 0.0978 -0.0975
vn -0.3856 0.9219 -0.0380
vn -0.7063 0.7045 -0.0696
vn -0.9202 0.3809 -0.0906
vn -0.1009 0.9949 -0.0000
vn -0.9952 0.0978 -0.0000
vn -0.3875 0.9219 -0.0000
vn -0.7097 0.7045 -0.0000
vn -0.9246 0.3809 -0.0000
vn -0.1004 0.9949 0.0099
vn -0.9904 0.0978 0.0975
vn -0.3856 0.9219 0.0380
vn -0.7063 0.7045 0.0696
vn -0.9202 0.3809 0.0906
vn -0.0990 0.9949 0.0197
vn -0.9761 0.0978 0.1942
vn -0.3800 0.9219 0.0756
vn -0.6961 0.7045 0.1385
vn -0.9068 0.3809 0.1804
vn -0.0966 0.9949 0.0293
vn -0.9523 0.0978 0.2889
vn -0.3708 0.9219 0.1125
vn -0.6792 0.7045 0.2060
vn -0.8848 0.3809 0.2684
vn -0.0932 0.9949 0.0386
vn -0.9194 0.0978 0.3808
vn -0.3580 0.9219 0.1483
vn -0.6557 0.7045 0.2716
vn -0.8542 0.3809 0.3538
vn -0.0890 0.9949 0.0476
vn -0.8777 0.0978 0.4691
vn -0.3417 0.9219 0.1827
vn -0.6259 0.7045 0.3346
vn -0.8154 0.3809 0.4359
vn -0.0839 0.9949 0.0561
vn -0.8275 0.0978 0.5529
vn -0.3222 0.9219 0.2153
vn -0.5901 0.7045 0.3943
vn -0.7688 0.3809 0.5137
vn -0.0780 0.9949 0.0640
vn -0.7693 0.0978 0.6313
vn -0.2995 0.9219 0.2458
vn -0.5486 0.7045 0.4503
vn -0.7147 0.3809 0.5866
vn -0.0714 0.9949 0.0714
vn -0.7037 0.0978 0.7037
vn -0.2740 0.9219 0.2740
vn -0.5019 0.7045 0.5019
vn -0.6538 0.3809 0.6538
vn -0.0640 0.9949 0.0780
vn -0.6313 0.0978 0.7693
vn -0.2458 0.9219 0.2995
vn -0.4503 0.7045 0.5486
vn -0.5866 0.3809 0.7147
vn -0.0561 0.9949 0.0839
vn -0.5529 0.0978 0.8275
vn -0.2153 0.9219 0.3222
vn -0.3943 0.7045 0.5901
vn -0.5137 0.3809 0.7688
vn -0.0476 0.9949 0.0890
vn -0.4691 0.0978 0.8777
vn -0.1827 0.9219 0.3417
vn -0.3346 0.7045 0.6259
vn -0.4359 0.3809 0.8154
vn -0.0386 0.9949 0.0932
vn -0.3808 0.0978 0.9194
vn -0.1483 0.9219 0.3580
vn -0.2716 0.7045 0.6557
vn -0.3538 0.3809 0.8542
vn -0.0293 0.9949 0.0966
vn -0.2889 0.0978 0.9523
vn -0.1125 0.9219 0.3708
vn -0.2060 0.7045 0.6792
vn -0.2684 0.3809 0.8848
vn -0.0197 0.9949 0.0990
vn -0.1942 0.0978 0.9761
vn -0.0756 0.9219 0.3800
vn -0.1385 0.7045 0.6961
vn -0.1804 0.3809 0.9068
vn -0.0099 0.9949 0.1004
vn -0.0975 0.0978 0.9904
vn -0.0380 0.9219 0.3856
vn -0.0696 0.7045 0.7063
vn -0.0906 0.3809 0.9202
vn -0.0000 0.9949 0.1009
vn -0.0000 0.0978 0.9952
vn -0.0000 0.9219 0.3875
vn -0.0000 0.7045 0.7097
vn -0.0000 0.3809 0.9246
vn 0.0099 0.9949 0.1004
vn 0.0975 0.0978 0.9904
vn 0.0380 0.9219 0.3856
vn 0.0696 0.7045 0.7063
vn 0.0906 0.3809 0.9202
vn 0.0197 0.9949 0.0990
vn 0.1942 0.0978 0.9761
vn 0.0756 0.9219 0.3800
vn 0.1385 0.7045 0.6961
vn 0.1804 0.3809 0.9068
vn 0.0293 0.9949 0.0966
vn 0.2889 0.0978 0.9523
vn 0.1125 0.9219 0.3708
vn 0.2060 0.7045 0.6792
vn 0.2684 0.3809 0.8848
vn 0.0386 0.9949 0.0932
vn 0.3808 0.0978 0.9194
vn 0.1483 0.9219 0.3580
vn 0.2716 0.7045 0.6557
vn 0.3538 0.3809 0.8542
vn 0.0476 0.9949 0.0890
vn 0.4691 0.0978 0.8777
vn 0.1827 0.9219 0.3417
vn 0.3346 0.7045 0.6259
vn 0.4359 0.3809 0.8154
vn 0.0561 0.9949 0.0839
vn 0.5529 0.0978 0.8275
vn 0.2153 0.9219 0.3222
vn 0.3943 0.7045 0.5901
vn 0.5137 0.3809 0.7688
vn 0.0640 0.9949 0.0780
vn 0.6313 0.0978 0.7693
vn 0.2458 0.9219 0.2995
vn 0.4503 0.7045 0.5486
vn 0.5866 0.3809 0.7147
vn 0.0714 0.9949 0.0714
vn 0.7037 0.0978 0.7037
vn 0.2740 0.9219 0.2740
vn 0.5019 0.7045 0.5019
vn 0.6538 0.3809 0.6538
vn 0.0780 0.9949 0.0640
vn 0.7693 0.0978 0.6313
vn 0.2995 0.9219 0.2458
vn 0.5486 0.7045 0.4503
vn 0.7147 0.3809 0.5866
vn 0.0839 0.9949 0.0561
vn 0.8275 0.0978 0.5529
vn 0.3222 0.9219 0.2153
vn 0.5901 0.7045 0.3943
vn 0.7688 0.3809 0.5137
vn 0.0890 0.9949 0.0476
vn 0.8777 0.0978 0.4691
vn 0.3417 0.9219 0.1827
vn 0.6259 0.7045 0.3346
vn 0.8154 0.3809 0.4359
vn 0.0932 0.9949 0.0386
vn 0.9194 0.0978 0.3808
vn 0.3580 0.9219 0.1483
vn 0.6557 0.7045 0.2716
vn 0.8542 0.3809 0.3538
vn 0.0966 0.9949 0.0293
vn 0.9523 0.0978 0.2889
vn 0.3708 0.9219 0.1125
vn 0.6792 0.7045 0.2060
vn 0.8848 0.3809 0.2684
vn 0.0990 0.9949 0.0197
vn 0.9761 0.0978 0.1942
vn 0.3800 0.9219 0.0756
vn 0.6961 0.7045 0.1385
vn 0.9068 0.3809 0.1804
vn 0.1004 0.9949 0.0099
vn 0.9904 0.0978 0.0975
vn 0.3856 0.9219 0.0380
vn 0.7063 0.7045 0.0696
vn 0.9202 0.3809 0.0906
s 1
f 1//1 2//2 66//2 65//1
f 2//2 3//3 67//3 66//2
f 3//3 4//4 68//4 67//3
f 4//4 5//5 69//5 68//4
f 5//5 6//6 70//6 69//5
f 6//6 7//7 71//7 70//6
f 7//7 8//8 72//8 71//7
f 8//8 9//9 73//9 72//8
f 9//9 10//10 74//10 73//9
f 10//10 11//11 75//11 74//10
f 11//11 12//12 76//12 75//11
f 12//12 13//13 77//13 76//12
f 13//13 14//14 78//14 77//13
f 14//14 15//15 79//15 78//14
f 15//15 16//16 80//16 79//15
f 16//16 17//17 81//17 80//16
f 17//17 18//18 82//18 81//17
f 18//18 19//19 83//19 82//18
f 19//19 20//20 84//20 83//19
f 20//20 21//21 85//21 84//20
f 21//21 22//22 86//22 85//21
f 22//22 23//23 87//23 86//22
f 23//23 24//24 88//24 87//23
f 24//24 25//25 89//25 88//24
f 25//25 26//26 90//26 89//25
f 26//26 27//27 91//27 90//26
f 27//27 28//28 92//28 91//27
f 28//28 29//29 93//29 92//28
f 29//29 30//30 94//30 93//29
f 30//30 31//31 95//31 94//30
f 31//31 32//32 96//32 95//31
f 32//32 33//33 97//33 96//32
f 33//33 34//34 98//34 97//33
f 34//34 35//35 99//35 98//34
f 35//35 36//36 100//36 99//35
f 36//36 37//37 101//37 100//36
f 37//37 38//38 102//38 101//37
f 38//38 39//39 103//39 102//38
f 39//39 40//40 104//40 103//39
f 40//40 41//41 105//41 104//40
f 41//41 42//42 106//42 105//41
f 42//42 43//43 107//43 106//42
f 43//43 44//44 108//44 107//43
f 44//44 45//45 109//45 108//44
f 45//45 46//46 110//46 109//45
f 46//46 47//47 111//47 110//46
f 47//47 48//48 112//48 111//47
f 48//48 49//49 113//49 112//48
f 49//49 50//50 114//50 113//49
f 50//50 51//51 115//51 114//50
f 51//51 52//52 116//52 115//51
f 52//52 53//53 117//53 116//52
f 53//53 54//54 118//54 117//53
f 54//54 55//55 119//55 118//54
f 55//55 56//56 120//56 119//55
f 56//56 57//57 121//57 120//56
f 57//57 58//58 122//58 121//57
f 58//58 59//59 123//59 122//58
f 59//59 60//60 124//60 123//59
f 60//60 61//61 125//61 124//60
f 61//61 62//62 126//62 125//61
f 62//62 63//63 127//63 126//62
f 63//63 64//64 128//64 127//63
f 64//64 1//1 65//1 128//64
f 65//1 66//2 130//2 129//1
f 66//2 67//3 131//3 130//2
f 67//3 68//4 132//4 131//3
f 68//4 69//5 133//5 132//4
f 69//5 70//6 134//6 133//5
f 70//6 71//7 135//7 134//6
f 71//7 72//8 136//8 135//7
f 72//8 73//9 137//9 136//8
f 73//9 74//10 138//10 137//9
f 74//10 75//11 139//11 138//10
f 75//11 76//12 140//12 139//11
f 76//12 77//13 141//13 140//12
f 77//13 78//14 142//14 141//13
f 78//14 79//15 143//15 142//14
f 79//15 80//16 144//16 143//15
f 80//16 81//17 145//17 144//16
f 81//17 82//18 146//18 145//17
f 82//18 83//19 147//19 146//18
f 83//19 84//20 148//20 147//19
f 84//20 85//21 149//21 148//20
f 85//21 86//22 150//22 149//21
f 86//22 87//23 151//23 150//22
f 87//23 88//24 152//24 151//23
f 88//24 89//25 153//25 152//24
f 89//25 90//26 154//26 153//25
f 90//26 91//27 155//27 154//26
f 91//27 92//28 156//28 155//27
f 92//28 93//29 157//29 156//28
f 93//29 94//30 158//30 157//29
f 94//30 95//31 159//31 158//30
f 95//31 96//32 160//32 159//31
f 96//32 97//33 161//33 160//32
f 97//33 98//34 162//34 161//33
f 98//34 99//35 163//35 162//34
f 99//35 100//36 164//36 163//35
f 100//36 101//37 165//37 164//36
f 101//37 102//38 166//38 165//37
f 102//38 103//39 167//39 166//38
f 103//39 104//40 168//40 167//39
f 104//40 105//41 169//41 168//40
f 105//41 106//42 170//42 169//41
f 106//42 107//43 171//43 170//42
f 107//43 108//44 172//44 171//43
f 108//44 109//45 173//45 172//44
f 109//45 110//46 174//46 173//45
f 110//46 111//47 175//47 174//46
f 111//47 112//48 176//48 175//47
f 112//48 113//49 177//49 176//48
f 113//49 114//50 178//50 177//49
f 114//50 115//51 179//51 178//50
f 115//51 116//52 180//52 179//51
f 116//52 117//53 181//53 180//52
f 117//53 118//54 182//54 181//53
f 118//54 119//55 183//55 182//54
f 119//55 120//56 184//56 183//55
f 120//56 121//57 185//57 184//56
f 121//57 122//58 186//58 185//57
f 122//58 123//59 187//59 186//58
f 123//59 124//60 188//60 187//59
f 124//60 125//61 189//61 188//60
f 125//61 126//62 190//62 189//61
f 126//62 127//63 191//63 190//62
f 127//63 128//64 192//64 191//63
f 128//64 65//1 129//1 192//64
f 193//65 198//70 200//72 195//67
f 195//67 200//72 201//73 196//68
f 196//68 201//73 202//74 197//69
f 197//69 202//74 199//71 194//66
f 198//70 203//75 205//77 200//72
f 200//72 205//77 206//78 201//73
f 201//73 206//78 207//79 202//74
f 202//74 207//79 204//76 199//71
f 203//75 208//80 210//82 205//77
f 205//77 210//82 211//83 206//78
f 206//78 211//83 212//84 207//79
f 207//79 212//84 209//81 204//76
f 208//80 213//85 215//87 210//82
f 210//82 215//87 216//88 211//83
f 211//83 216//88 217//89 212//84
f 212//84 217//89 214//86 209//81
f 213//85 218//90 220//92 215//87
f 215//87 220//92 221//93 216//88
f 216//88 221//93 222//94 217//89
f 217//89 222//94 219//91 214//86
f 218//90 223//95 225//97 220//92
f 220//92 225//97 226//98 221//93
f 221//93 226//98 227//99 222//94
f 222//94 227//99 224//96 219//91
f 223//95 228//100 230//102 225//97
f 225//97 230//102 231//103 226//98
f 226//98 231//103 232//104 227//99
f 227//99 232//104 229//101 224//96
f 228//100 233//105 235//107 230//102
f 230//102 235//107 236//108 231//103
f 231//103 236//108 237//109 232//104
f 232//104 237//109 234//106 229//101
f 233//105 238//110 240//112 235//107
f 235//107 240//112 241//113 236//108
f 236//108 241//113 242//114 237//109
f 237//109 242//114 239//111 234//106
f 238//110 243//115 245//117 240//112
f 240//112 245//117 246//118 241//113
f 241//113 246//118 247//119 242//114
f 242//114 247//119 244//116 239//111
f 243//115 248//120 250//122 245//117
f 245//117 250//122 251//123 246//118
f 246//118 251//123 252//124 247//119
f 247//119 252//124 249//121 244//116
f 248//120 253//125 255//127 250//122
f 250//122 255//127 256//128 251//123
f 251//123 256//128 257//129 252//124
f 252//124 257//129 254//126 249//121
f 253//125 258//130 260//132 255//127
f 255//127 260//132 261//133 256//128
f 256//128 261//133 262//134 257//129
f 257//129 262//134 259//131 254//126
f 258//130 263//135 265//137 260//132
f 260//132 265//137 266//138 261//133
f 261//133 266//138 267//139 262//134
f 262//134 267//139 264//136 259//131
f 263//135 268//140 270//142 265//137
f 265//137 270//142 271//143 266//138
f 266//138 271//143 272//144 267//139
f 267//139 272//144 269//141 264//136
f 268//140 273//145 275//147 270//142
f 270//142 275//147 276//148 271//143
f 271//143 276//148 277//149 272//144
f 272//144 277//149 274//146 269//141
f 273//145 278//150 280//152 275//147
f 275//147 280//152 281//153 276//148
f 276//148 281//153 282//154 277//149
f 277//149 282//154 279//151 274//146
f 278//150 283//155 285//157 280//152
f 280//152 285//157 286//158 281//153
f 281//153 286//158 287//159 282//154
f 282//154 287//159 284//156 279//151
f 283//155 288//160 290//162 285//157
f 285//157 290//162 291//163 286//158
f 286//158 291//163 292//164 287//159
f 287//159 292//164 289//161 284//156
f 288//160 293//165 295//167 290//162
f 290//162 295//167 296//168 291//163
f 291//163 296//168 297//169 292//164
f 292//164 297//169 294//166 289//161
f 293//165 298//170 300//172 295//167
f 295//167 300//172 301//173 296//168
f 296//168 301//173 302//174 297//169
f 297//169 302//174 299//171 294//166
f 298//170 303//175 305//177 300//172
f 300//172 305//177 306//178 301//173
f 301//173 306//178 307//179 302//174
f 302//174 307//179 304//176 299//171
f 303//175 308//180 310//182 305//177
f 305//177 310//182 311//183 306//178
f 306//178 311//183 312//184 307//179
f 307//179 312//184 309//181 304//176
f 308//180 313//185 315//187 310//182
f 310//182 315//187 316//188 311//183
f 311//183 316//188 317//189 312//184
f 312//184 317//189 314//186 309//181
f 313//185 318//190 320//192 315//187
f 315//187 320//192 321//193 316//188
f 316//188 321//193 322//194 317//189
f 317//189 322//194 319//191 314//186
f 318//190 323//195 325//197 320//192
f 320//192 325//197 326//198 321//193
f 321//193 326//198 327//199 322//194
f 322//194 327//199 324//196 319//191
f 323//195 328//200 330//202 325//197
f 325//197 330//202 331//203 326//198
f 326//198 331//203 332//204 327//199
f 327//199 332//204 329//201 324//196
f 328//200 333//205 335//207 330//202
f 330//202 335//207 336//208 331//203
f 331//203 336//208 337//209 332//204
f 332//204 337//209 334//206 329//201
f 333//205 338//210 340//212 335//207
f 335//207 340//212 341//213 336//208
f 336//208 341//213 342//214 337//209
f 337//209 342//214 339//211 334//206
f 338//210 343//215 345//217 340//212
f 340//212 345//217 346//218 341//213
f 341//213 346//218 347//219 342//214
f 342//214 347//219 344//216 339//211
f 343//215 348//220 350//222 345//217
f 345//217 350//222 351//223 346//218
f 346//218 351//223 352//224 347//219
f 347//219 352//224 349//221 344//216
f 348//220 353//225 355//227 350//222
f 350//222 355//227 356//228 351//223
f 351//223 356//228 357//229 352//224
f 352//224 357//229 354//226 349//221
f 353//225 358//230 360//232 355//227
f 355//227 360//232 361//233 356//228
f 356//228 361//233 362//234 357//229
f 357//229 362//234 359//231 354//226
f 358//230 363//235 365//237 360//232
f 360//232 365//237 366//238 361//233
f 361//233 366//238 367//239 362//234
f 362//234 367//239 364//236 359//231
f 363//235 368//240 370//242 365//237
f 365//237 370//242 371//243 366//238
f 366//238 371//243 372//244 367//239
f 367//239 372//244 369//241 364//236
f 368//240 373//245 375//247 370//242
f 370//242 375//247 376//248 371//243
f 371//243 376//248 377//249 372//244
f 372//244 377//249 374//246 369//241
f 373//245 378//250 380//252 375//247
f 375//247 380//252 381//253 376//248
f 376//248 381//253 382//254 377//249
f 377//249 382//254 379//251 374//246
f 378//250 383//255 385//257 380//252
f 380//252 385//257 386//258 381//253
f 381//253 386//258 387//259 382//254
f 382//254 387//259 384//256 379//251
f 383//255 388//260 390//262 385//257
f 385//257 390//262 391//263 386//258
f 386//258 391//263 392//264 387//259
f 387//259 392//264 389//261 384//256
f 388//260 393//265 395//267 390//262
f 390//262 395//267 396//268 391//263
f 391//263 396//268 397//269 392//264
f 392//264 397//269 394//266 389//261
f 393//265 398//270 400//272 395//267
f 395//267 400//272 401//273 396//268
f 396//268 401//273 402//274 397//269
f 397//269 402//274 399//271 394//266
f 398//270 403//275 405//277 400//272
f 400//272 405//277 406//278 401//273
f 401//273 406//278 407//279 402//274
f 402//274 407//279 404//276 399//271
f 403//275 408//280 410//282 405//277
f 405//277 410//282 411//283 406//278
f 406//278 411//283 412//284 407//279
f 407//279 412//284 409//281 404//276
f 408//280 413//285 415//287 410//282
f 410//282 415//287 416//288 411//283
f 411//283 416//288 417//289 412//284
f 412//284 417//289 414//286 409//281
f 413//285 418//290 420//292 415//287
f 415//287 420//292 421//293 416//288
f 416//288 421//293 422//294 417//289
f 417//289 422//294 419//291 414//286
f 418//290 423//295 425//297 420//292
f 420//292 425//297 426//298 421//293
f 421//293 426//298 427//299 422//294
f 422//294 427//299 424//296 419//291
f 423//295 428//300 430//302 425//297
f 425//297 430//302 431//303 426//298
f 426//298 431//303 432//304 427//299
f 427//299 432//304 429//301 424//296
f 428//300 433//305 435//307 430//302
f 430//302 435//307 436//308 431//303
f 431//303 436//308 437//309 432//304
f 432//304 437//309 434//306 429//301
f 433//305 438//310 440//312 435//307
f 435//307 440//312 441//313 436//308
f 436//308 441//313 442//314 437//309
f 437//309 442//314 439//311 434//306
f 438//310 443//315 445//317 440//312
f 440//312 445//317 446//318 441//313
f 441//313 446//318 447//319 442//314
f 442//314 447//319 444//316 439//311
f 443//315 448//320 450//322 445//317
f 445//317 450//322 451//323 446//318
f 446//318 451//323 452//324 447//319
f 447//319 452//324 449//321 444//316
f 448//320 453//325 455//327 450//322
f 450//322 455//327 456//328 451//323
f 451//323 456//328 457//329 452//324
f 452//324 457//329 454//326 449//321
f 453//325 458//330 460//332 455//327
f 455//327 460//332 461//333 456//328
f 456//328 461//333 462//334 457//329
f 457//329 462//334 459//331 454//326
f 458//330 463//335 465//337 460//332
f 460//332 465//337 466//338 461//333
f 461//333 466//338 467//339 462//334
f 462//334 467//339 464//336 459//331
f 463//335 468//340 470//342 465//337
f 465//337 470//342 471//343 466//338
f 466//338 471//343 472//344 467//339
f 467//339 472//344 469//341 464//336
f 468//340 473//345 475//347 470//342
f 470//342 475//347 476//348 471//343
f 471//343 476//348 477//349 472//344
f 472//344 477//349 474//346 469//341
f 473//345 478//350 480//352 475//347
f 475//347 480//352 481//353 476//348
f 476//348 481//353 482//354 477//349
f 477//349 482//354 479//351 474//346
f 478//350 483//355 485//357 480//352
f 480//352 485//357 486//358 481//353
f 481//353 486//358 487//359 482//354
f 482//354 487//359 484//356 479//351
f 483//355 488//360 490//362 485//357
f 485//357 490//362 491//363 486//358
f 486//358 491//363 492//364 487//359
f 487//359 492//364 489//361 484//356
f 488//360 493//365 495//367 490//362
f 490//362 495//367 496//368 491//363
f 491//363 496//368 497//369 492//364
f 492//364 497//369 494//366 489//361
f 493//365 498//370 500//372 495//367
f 495//367 500//372 501//373 496//368
f 496//368 501//373 502//374 497//369
f 497//369 502//374 499//371 494//366
f 498//370 503//375 505//377 500//372
f 500//372 505//377 506//378 501//373
f 501//373 506//378 507//379 502//374
f 502//374 507//379 504//376 499//371
f 503//375 508//380 510//382 505//377
f 505//377 510//382 511//383 506//378
f 506//378 511//383 512//384 507//379
f 507//379 512//384 509//381 504//376
f 508//380 193//65 195//67 510//382
f 510//382 195//67 196//68 511//383
f 511//383 196//68 197//69 512//384
f 512//384 197//69 194//66 509//381
f 518//390 513//385 515//387 520//392
f 520//392 515//387 516//388 521//393
f 521//393 516//388 517//389 522//394
f 522//394 517//389 514//386 519//391
f 523//395 518//390 520//392 525//397
f 525//397 520//392 521//393 526//398
f 526//398 521//393 522//394 527//399
f 527//399 522//394 519//391 524//396
f 528//400 523//395 525//397 530//402
f 530//402 525//397 526//398 531//403
f 531//403 526//398 527//399 532//404
f 532//404 527//399 524//396 529//401
f 533//405 528//400 530//402 535//407
f 535//407 530//402 531//403 536//408
f 536//408 531//403 532//404 537//409
f 537//409 532//404 529//401 534//406
f 538//410 533//405 535//407 540//412
f 540//412 535//407 536//408 541//413
f 541//413 536//408 537//409 542//414
f 542//414 537//409 534//406 539//411
f 543//415 538//410 540//412 545//417
f 545//417 540//412 541//413 546//418
f 546//418 541//413 542//414 547//419
f 547//419 542//414 539//411 544//416
f 548//420 543//415 545//417 550//422
f 550//422 545//417 546//418 551//423
f 551//423 546//418 547//419 552//424
f 552//424 547//419 544//416 549//421
f 553//425 548//420 550//422 555//427
f 555//427 550//422 551//423 556//428
f 556//428 551//423 552//424 557//429
f 557//429 552//424 549//421 554//426
f 558//430 553//425 555//427 560//432
f 560//432 555//427 556//428 561//433
f 561//433 556//428 557//429 562//434
f 562//434 557//429 554//426 559//431
f 563//435 558//430 560//432 565//437
f 565//437 560//432 561//433 566//438
f 566//438 561//433 562//434 567//439
f 567//439 562//434 559//431 564//436
f 568//440 563//435 565//437 570//442
f 570//442 565//437 566//438 571//443
f 571//443 566//438 567//439 572//444
f 572//444 567//439 564//436 569//441
f 573//445 568//440 570//442 575//447
f 575//447 570//442 571//443 576//448
f 576//448 571//443 572//444 577//449
f 577//449 572//444 569//441 574//446
f 578//450 573//445 575//447 580//452
f 580//452 575//447 576//448 581//453
f 581//453 576//448 577//449 582//454
f 582//454 577//449 574//446 579//451
f 583//455 578//450 580//452 585//457
f 585//457 580//452 581//453 586//458
f 586//458 581//453 582//454 587//459
f 587//459 582//454 579//451 584//456
f 588//460 583//455 585//457 590//462
f 590//462 585//457 586//458 591//463
f 591//463 586//458 587//459 592//464
f 592//464 587//459 584//456 589//461
f 593//465 588//460 590//462 595//467
f 595//467 590//462 591//463 596//468
f 596//468 591//463 592//464 597//469
f 597//469 592//464 589//461 594//466
f 598//470 593//465 595//467 600//472
f 600//472 595//467 596//468 601//473
f 601//473 596//468 597//469 602//474
f 602//474 597//469 594//466 599//471
f 603//475 598//470 600//472 605//477
f 605//477 600//472 601//473 606//478
f 606//478 601//473 602//474 607//479
f 607//479 602//474 599//471 604//476
f 608//480 603//475 605//477 610//482
f 610//482 605//477 606//478 611//483
f 611//483 606//478 607//479 612//484
f 612//484 607//479 604//476 609//481
f 613//485 608//480 610//482 615//487
f 615//487 610//482 611//483 616//488
f 616//488 611//483 612//484 617//489
f 617//489 612//484 609//481 614//486
f 618//490 613//485 615//487 620//492
f 620//492 615//487 616//488 621//493
f 621//493 616//488 617//489 622//494
f 622//494 617//489 614//486 619//491
f 623//495 618//490 620//492 625//497
f 625//497 620//492 621//493 626//498
f 626//498 621//493 622//494 627//499
f 627//499 622//494 619//491 624//496
f 628//500 623//495 625//497 630//502
f 630//502 625//497 626//498 631//503
f 631//503 626//498 627//499 632//504
f 632//504 627//499 624//496 629//501
f 633//505 628//500 630//502 635//507
f 635//507 630//502 631//503 636//508
f 636//508 631//503 632//504 637//509
f 637//509 632//504 629//501 634//506
f 638//510 633//505 635//507 640//512
f 640//512 635//507 636//508 641//513
f 641//513 636//508 637//509 642//514
f 642//514 637//509 634//506 639//511
f 643//515 638//510 640//512 645//517
f 645//517 640//512 641//513 646//518
f 646//518 641//513 642//514 647//519
f 647//519 642//514 639//511 644//516
f 648//520 643//515 645//517 650//522
f 650//522 645//517 646//518 651//523
f 651//523 646//518 647//519 652//524
f 652//524 647//519 644//516 649//521
f 653//525 648//520 650//522 655//527
f 655//527 650//522 651//523 656//528
f 656//528 651//523 652//524 657//529
f 657//529 652//524 649//521 654//526
f 658//530 653//525 655//527 660//532
f 660//532 655//527 656//528 661//533
f 661//533 656//528 657//529 662//534
f 662//534 657//529 654//526 659//531
f 663//535 658//530 660//532 665//537
f 665//537 660//532 661//533 666//538
f 666//538 661//533 662//534 667//539
f 667//539 662//534 659//531 664//536
f 668//540 663//535 665//537 670//542
f 670//542 665//537 666//538 671//543
f 671//543 666//538 667//539 672//544
f 672//544 667//539 664//536 669//541
f 673//545 668//540 670//542 675//547
f 675//547 670//542 671//543 676//548
f 676//548 671//543 672//544 677//549
f 677//549 672//544 669//541 674//546
f 678//550 673//545 675//547 680//552
f 680//552 675//547 676//548 681//553
f 681//553 676//548 677//549 682//554
f 682//554 677//549 674//546 679//551
f 683//555 678//550 680//552 685//557
f 685//557 680//552 681//553 686//558
f 686//558 681//553 682//554 687//559
f 687//559 682//554 679//551 684//556
f 688//560 683//555 685//557 690//562
f 690//562 685//557 686//558 691//563
f 691//563 686//558 687//559 692//564
f 692//564 687//559 684//556 689//561
f 693//565 688//560 690//562 695//567
f 695//567 690//562 691//563 696//568
f 696//568 691//563 692//564 697//569
f 697//569 692//564 689//561 694//566
f 698//570 693//565 695//567 700//572
f 700//572 695//567 696//568 701//573
f 701//573 696//568 697//569 702//574
f 702//574 697//569 694//566 699//571
f 703//575 698//570 700//572 705//577
f 705//577 700//572 701//573 706//578
f 706//578 701//573 702//574 707//579
f 707//579 702//574 699//571 704//576
f 708//580 703//575 705//577 710//582
f 710//582 705//577 706//578 711//583
f 711//583 706//578 707//579 712//584
f 712//584 707//579 704//576 709//581
f 713//585 708//580 710//582 715//587
f 715//587 710//582 711//583 716//588
f 716//588 711//583 712//584 717//589
f 717//589 712//584 709//581 714//586
f 718//590 713//585 715//587 720//592
f 720//592 715//587 716//588 721//593
f 721//593 716//588 717//589 722//594
f 722//594 717//589 714//586 719//591
f 723//595 718//590 720//592 725//597
f 725//597 720//592 721//593 726//598
f 726//598 721//593 722//594 727//599
f 727//599 722//594 719//591 724//596
f 728//600 723//595 725//597 730//602
f 730//602 725//597 726//598 731//603
f 731//603 726//598 727//599 732//604
f 732//604 727//599 724//596 729//601
f 733//605 728//600 730//602 735//607
f 735//607 730//602 731//603 736//608
f 736//608 731//603 732//604 737//609
f 737//609 732//604 729//601 734//606
f 738//610 733//605 735//607 740//612
f 740//612 735//607 736//608 741//613
f 741//613 736//608 737//609 742//614
f 742//614 737//609 734//606 739//611
f 743//615 738//610 740//612 745//617
f 745//617 740//612 741//613 746//618
f 746//618 741//613 742//614 747//619
f 747//619 742//614 739//611 744//616
f 748//620 743//615 745//617 750//622
f 750//622 745//617 746//618 751//623
f 751//623 746//618 747//619 752//624
f 752//624 747//619 744//616 749//621
f 753//625 748//620 750//622 755//627
f 755//627 750//622 751//623 756//628
f 756//628 751//623 752//624 757//629
f 757//629 752//624 749//621 754//626
f 758//630 753//625 755//627 760//632
f 760//632 755//627 756//628 761//633
f 761//633 756//628 757//629 762//634
f 762//634 757//629 754//626 759//631
f 763//635 758//630 760//632 765//637
f 765//637 760//632 761//633 766//638
f 766//638 761//633 762//634 767//639
f 767//639 762//634 759//631 764//636
f 768//640 763//635 765//637 770//642
f 770//642 765//637 766//638 771//643
f 771//643 766//638 767//639 772//644
f 772//644 767//639 764//636 769//641
f 773//645 768//640 770//642 775//647
f 775//647 770//642 771//643 776//648
f 776//648 771//643 772//644 777//649
f 777//649 772//644 769//641 774//646
f 778//650 773//645 775//647 780//652
f 780//652 775//647 776//648 781//653
f 781//653 776//648 777//649 782//654
f 782//654 777//649 774//646 779//651
f 783//655 778//650 780//652 785//657
f 785//657 780//652 781//653 786//658
f 786//658 781//653 782//654 787//659
f 787//659 782//654 779//651 784//656
f 788//660 783//655 785//657 790//662
f 790//662 785//657 786//658 791//663
f 791//663 786//658 787//659 792//664
f 792//664 787//659 784//656 789//661
f 793//665 788//660 790//662 795//667
f 795//667 790//662 791//663 796//668
f 796//668 791//663 792//664 797//669
f 797//669 792//664 789//661 794//666
f 798//670 793//665 795//667 800//672
f 800//672 795//667 796//668 801//673
f 801//673 796//668 797//669 802//674
f 802//674 797//669 794//666 799//671
f 803//675 798//670 800//672 805//677
f 805//677 800//672 801//673 806//678
f 806//678 801//673 802//674 807//679
f 807//679 802//674 799//671 804//676
f 808//680 803//675 805//677 810//682
f 810//682 805//677 806//678 811//683
f 811//683 806//678 807//679 812//684
f 812//684 807//679 804//676 809//681
f 813//685 808//680 810//682 815//687
f 815//687 810//682 811//683 816//688
f 816//688 811//683 812//684 817//689
f 817//689 812//684 809//681 814//686
f 818//690 813//685 815//687 820//692
f 820//692 815//687 816//688 821//693
f 821//693 816//688 817//689 822//694
f 822//694 817//689 814//686 819//691
f 823//695 818//690 820//692 825//697
f 825//697 820//692 821//693 826//698
f 826//698 821//693 822//694 827//699
f 827//699 822//694 819//691 824//696
f 828//700 823//695 825//697 830//702
f 830//702 825//697 826//698 831//703
f 831//703 826//698 827//699 832//704
f 832//704 827//699 824//696 829//701
f 513//385 828//700 830//702 515//387
f 515//387 830//702 831//703 516//388
f 516//388 831//703 832//704 517//389
f 517//389 832//704 829//701 514//386
f 509//381 194//66 1//1 64//64
f 194//66 199//71 2//2 1//1
f 508//380 503//375 498//370 493//365 488//360 483//355 478//350 473//345 468//340 463//335 458//330 453//325 448//320 443//315 438//310 433//305 428//300 423//295 418//290 413//285 408//280 403//275 398//270 393//265 388//260 383//255 378//250 373//245 368//240 363//235 358//230 353//225 348//220 343//215 338//210 333//205 328//200 323//195 318//190 313//185 308//180 303//175 298//170 293//165 288//160 283//155 278//150 273//145 268//140 263//135 258//130 253//125 248//120 243//115 238//110 233//105 228//100 223//95 218//90 213//85 208//80 203//75 198//70 193//65
f 199//71 204//76 3//3 2//2
f 204//76 209//81 4//4 3//3
f 209//81 214//86 5//5 4//4
f 214//86 219//91 6//6 5//5
f 219//91 224//96 7//7 6//6
f 224//96 229//101 8//8 7//7
f 229//101 234//106 9//9 8//8
f 234//106 239//111 10//10 9//9
f 239//111 244//116 11//11 10//10
f 244//116 249//121 12//12 11//11
f 249//121 254//126 13//13 12//12
f 254//126 259//131 14//14 13//13
f 259//131 264//136 15//15 14//14
f 264//136 269//141 16//16 15//15
f 269//141 274//146 17//17 16//16
f 274//146 279//151 18//18 17//17
f 279//151 284//156 19//19 18//18
f 284//156 289//161 20//20 19//19
f 289//161 294//166 21//21 20//20
f 294//166 299//171 22//22 21//21
f 299//171 304//176 23//23 22//22
f 304//176 309//181 24//24 23//23
f 309//181 314//186 25//25 24//24
f 314//186 319//191 26//26 25//25
f 319//191 324//196 27//27 26//26
f 324//196 329//201 28//28 27//27
f 329//201 334//206 29//29 28//28
f 334//206 339//211 30//30 29//29
f 339//211 344//216 31//31 30//30
f 344//216 349//221 32//32 31//31
f 349//221 354//226 33//33 32//32
f 354//226 359//231 34//34 33//33
f 359//231 364//236 35//35 34//34
f 364//236 369//241 36//36 35//35
f 369//241 374//246 37//37 36//36
f 374//246 379//251 38//38 37//37
f 379//251 384//256 39//39 38//38
f 384//256 389//261 40//40 39//39
f 389//261 394//266 41//41 40//40
f 394//266 399//271 42//42 41//41
f 399//271 404//276 43//43 42//42
f 404//276 409//281 44//44 43//43
f 409//281 414//286 45//45 44//44
f 414//286 419//291 46//46 45//45
f 419//291 424//296 47//47 46//46
f 424//296 429//301 48//48 47//47
f 429//301 434//306 49//49 48//48
f 434//306 439//311 50//50 49//49
f 439//311 444//316 51//51 50//50
f 444//316 449//321 52//52 51//51
f 449//321 454//326 53//53 52//52
f 454//326 459//331 54//54 53//53
f 459//331 464//336 55//55 54//54
f 464//336 469//341 56//56 55//55
f 469//341 474//346 57//57 56//56
f 474//346 479//351 58//58 57//57
f 479//351 484//356 59//59 58//58
f 484//356 489//361 60//60 59//59
f 489//361 494//366 61//61 60//60
f 494//366 499//371 62//62 61//61
f 499//371 504//376 63//63 62//62
f 504//376 509//381 64//64 63//63
f 192//64 129//1 514//386 829//701
f 129//1 130//2 519//391 514//386
f 513//385 518//390 523//395 528//400 533//405 538//410 543//415 548//420 553//425 558//430 563//435 568//440 573//445 578//450 583//455 588//460 593//465 598//470 603//475 608//480 613//485 618//490 623//495 628//500 633//505 638//510 643//515 648//520 653//525 658//530 663//535 668//540 673//545 678//550 683//555 688//560 693//565 698//570 703//575 708//580 713//585 718//590 723//595 728//600 733//605 738//610 743//615 748//620 753//625 758//630 763//635 768//640 773//645 778//650 783//655 788//660 793//665 798//670 803//675 808//680 813//685 818//690 823//695 828//700
f 130//2 131//3 524//396 519//391
f 131//3 132//4 529//401 524//396
f 132//4 133//5 534//406 529//401
f 133//5 134//6 539//411 534//406
f 134//6 135//7 544//416 539//411
f 135//7 136//8 549//421 544//416
f 136//8 137//9 554//426 549//421
f 137//9 138//10 559//431 554//426
f 138//10 139//11 564//436 559//431
f 139//11 140//12 569//441 564//436
f 140//12 141//13 574//446 569//441
f 141//13 142//14 579//451 574//446
f 142//14 143//15 584//456 579//451
f 143//15 144//16 589//461 584//456
f 144//16 145//17 594//466 589//461
f 145//17 146//18 599//471 594//466
f 146//18 147//19 604//476 599//471
f 147//19 148//20 609//481 604//476
f 148//20 149//21 614//486 609//481
f 149//21 150//22 619//491 614//486
f 150//22 151//23 624//496 619//491
f 151//23 152//24 629//501 624//496
f 152//24 153//25 634//506 629//501
f 153//25 154//26 639//511 634//506
f 154//26 155//27 644//516 639//511
f 155//27 156//28 649//521 644//516
f 156//28 157//29 654//526 649//521
f 157//29 158//30 659//531 654//526
f 158//30 159//31 664//536 659//531
f 159//31 160//32 669//541 664//536
f 160//32 161//33 674//546 669//541
f 161//33 162//34 679//551 674//546
f 162//34 163//35 684//556 679//551
f 163//35 164//36 689//561 684//556
f 164//36 165//37 694//566 689//561
f 165//37 166//38 699//571 694//566
f 166//38 167//39 704//576 699//571
f 167//39 168//40 709//581 704//576
f 168//40 169//41 714//586 709//581
f 169//41 170//42 719//591 714//586
f 170//42 171//43 724//596 719//591
f 171//43 172//44 729//601 724//596
f 172//44 173//45 734//606 729//601
f 173//45 174//46 739//611 734//606
f 174//46 175//47 744//616 739//611
f 175//47 176//48 749//621 744//616
f 176//48 177//49 754//626 749//621
f 177//49 178//50 759//631 754//626
f 178//50 179//51 764//636 759//631
f 179//51 180//52 769//641 764//636
f 180//52 181//53 774//646 769//641
f 181//53 182//54 779//651 774//646
f 182//54 183//55 784//656 779//651
f 183//55 184//56 789//661 784//656
f 184//56 185//57 794//666 789//661
f 185//57 186//58 799//671 794//666
f 186//58 187//59 804//676 799//671
f 187//59 188//60 809//681 804//676
f 188//60 189//61 814//686 809//681
f 189//61 190//62 819//691 814//686
f 190//62 191//63 824//696 819//691
f 191//63 192//64 829//701 824//696
